<svg width="15" height="16" viewBox="0 0 15 16" fill="none" xmlns="http://www.w3.org/2000/svg">
<path fill-rule="evenodd" clip-rule="evenodd" d="M8.125 13.2226V7.01135H6.875V14.5114H8.125V14.4807C11.2812 14.167 13.75 11.5001 13.75 8.26135C13.75 4.81198 10.9494 2.01135 7.5 2.01135C4.05062 2.01135 1.25 4.81198 1.25 8.26135C1.25 9.98635 1.95 11.5489 3.08125 12.6801L3.52312 13.122L4.4075 12.2382L3.965 11.7964C3.06 10.8914 2.5 9.64135 2.5 8.26135C2.5 5.50198 4.74062 3.26135 7.5 3.26135C10.2594 3.26135 12.5 5.50198 12.5 8.26135C12.5 10.8095 10.59 12.9145 8.125 13.2226ZM6.875 4.51135V5.76385L8.125 5.75885V4.51135H6.875Z" fill="black"/>
</svg>
