<svg width="15" height="16" viewBox="0 0 15 16" fill="none" xmlns="http://www.w3.org/2000/svg">
<g clip-path="url(#clip0_7_1261)">
<path d="M2.92969 4.0719C2.92969 3.74826 3.19199 3.48596 3.51562 3.48596H11.4844C11.808 3.48596 12.0703 3.74826 12.0703 4.0719C12.0703 4.39554 11.808 4.65784 11.4844 4.65784H3.51562C3.19199 4.65784 2.92969 4.39554 2.92969 4.0719ZM12.0703 6.41565C12.0703 6.09201 11.808 5.82971 11.4844 5.82971H3.51562C3.19199 5.82971 2.92969 6.09201 2.92969 6.41565C2.92969 6.73929 3.19199 7.00159 3.51562 7.00159H11.4844C11.808 7.00159 12.0703 6.73929 12.0703 6.41565ZM3.51562 8.17346C3.19199 8.17346 2.92969 8.43576 2.92969 8.7594C2.92969 9.08304 3.19199 9.34534 3.51562 9.34534H6.21094C6.53458 9.34534 6.79688 9.08304 6.79688 8.7594C6.79688 8.43576 6.53458 8.17346 6.21094 8.17346H3.51562ZM14.4856 12.7611C15.1705 13.446 15.1705 14.5611 14.4851 15.2465C14.1425 15.5891 13.6923 15.7606 13.2422 15.7606C12.7921 15.7606 12.3419 15.5891 11.9992 15.2465L8.79513 12.0364C8.72372 11.9649 8.6721 11.8762 8.64521 11.7788L7.99004 9.41389C7.93304 9.20789 7.99255 8.98725 8.14556 8.83802C8.29845 8.6889 8.52047 8.63466 8.72498 8.6968L11.0314 9.39741C11.1238 9.42545 11.2078 9.4758 11.2759 9.54412L14.4856 12.7611ZM9.73331 11.3175L11.8871 13.4753L12.7159 12.6465L10.5501 10.4759L9.40372 10.1277L9.73331 11.3175ZM13.6565 13.5893L13.5436 13.4761L12.715 14.3047L12.8283 14.4183C13.0563 14.6464 13.428 14.6464 13.6565 14.4178C13.885 14.1894 13.885 13.8177 13.6565 13.5893ZM12.6562 0.761353H2.34375C1.05137 0.761353 0 1.81272 0 3.1051V13.4176C0 14.71 1.05137 15.7614 2.34375 15.7614H9.52148C9.84512 15.7614 10.1074 15.4991 10.1074 15.1754C10.1074 14.8518 9.84512 14.5895 9.52148 14.5895H2.34375C1.69762 14.5895 1.17188 14.0637 1.17188 13.4176V3.1051C1.17188 2.45897 1.69762 1.93323 2.34375 1.93323H12.6562C13.3024 1.93323 13.8281 2.45897 13.8281 3.1051V10.3121C13.8281 10.6358 14.0904 10.8981 14.4141 10.8981C14.7377 10.8981 15 10.6358 15 10.3121V3.1051C15 1.81272 13.9486 0.761353 12.6562 0.761353Z" fill="black"/>
</g>
<defs>
<clipPath id="clip0_7_1261">
<rect width="15" height="15" fill="white" transform="translate(0 0.761353)"/>
</clipPath>
</defs>
</svg>
