<svg width="15" height="16" viewBox="0 0 15 16" fill="none" xmlns="http://www.w3.org/2000/svg">
<g clip-path="url(#clip0_7_1299)">
<path d="M9.30383 2.09489L9.62604 1.36991C9.7231 1.15156 9.62475 0.895824 9.40637 0.798793C9.18796 0.701703 8.93229 0.800082 8.83525 1.01846L8.37254 2.05955H6.62724L6.16452 1.01843C6.06749 0.800082 5.81176 0.701703 5.59341 0.798764C5.37506 0.895795 5.27671 1.15153 5.37374 1.36988L5.69595 2.09486C4.83459 2.2639 4.18262 3.02433 4.18262 3.9345V4.65564H10.8172V3.9345C10.8172 3.02439 10.1652 2.2639 9.30383 2.09489Z" fill="black"/>
<path d="M14.5672 8.40564H11.9711V7.50599C13.2772 7.29792 14.2787 6.16372 14.2787 4.7999V4.22298C14.2787 3.98404 14.085 3.7903 13.8461 3.7903C13.6071 3.7903 13.4134 3.98404 13.4134 4.22298V4.7999C13.4134 5.68484 12.797 6.42801 11.9711 6.62395V6.24221C11.9711 5.84456 11.6476 5.52107 11.2499 5.52107H7.93266V10.5691C7.93266 10.808 7.73892 11.0018 7.49997 11.0018C7.261 11.0018 7.06729 10.808 7.06729 10.5691V5.52104H3.75C3.35235 5.52104 3.02886 5.84454 3.02886 6.24218V6.62392C2.20298 6.42798 1.58657 5.68481 1.58657 4.79987V4.22295C1.58657 3.98401 1.39283 3.79027 1.15389 3.79027C0.914941 3.79027 0.721201 3.98401 0.721201 4.22295V4.79987C0.721201 6.1637 1.72271 7.29787 3.02889 7.50596V8.40561H0.432686C0.19374 8.40561 0 8.59935 0 8.8383C0 9.07724 0.19374 9.27098 0.432686 9.27098H3.02883V10.1706C1.72266 10.3787 0.721143 11.5129 0.721143 12.8767V13.4536C0.721143 13.6926 0.914883 13.8863 1.15383 13.8863C1.39277 13.8863 1.58651 13.6926 1.58651 13.4536V12.8767C1.58651 11.9918 2.20292 11.2486 3.0288 11.0527V11.2902C3.02883 13.7556 5.03458 15.7614 7.49994 15.7614C9.9653 15.7614 11.9711 13.7556 11.9711 11.2902V11.0527C12.7969 11.2487 13.4133 11.9918 13.4133 12.8768V13.4537C13.4133 13.6926 13.6071 13.8864 13.846 13.8864C14.085 13.8864 14.2787 13.6926 14.2787 13.4537V12.8768C14.2787 11.513 13.2772 10.3788 11.971 10.1707V9.27104H14.5672C14.8061 9.27104 14.9999 9.0773 14.9999 8.83835C14.9999 8.59941 14.8061 8.40564 14.5672 8.40564Z" fill="black"/>
</g>
<defs>
<clipPath id="clip0_7_1299">
<rect width="15" height="15" fill="white" transform="translate(0 0.761353)"/>
</clipPath>
</defs>
</svg>
