<svg width="15" height="15" viewBox="0 0 15 15" fill="none" xmlns="http://www.w3.org/2000/svg">
<g clip-path="url(#clip0_7_1254)">
<path d="M14.842 3.05848L11.9124 0.12873C11.83 0.0462891 11.7182 0 11.6017 0H4.86328C4.13634 0 3.54492 0.591416 3.54492 1.31836V7.11439C1.57014 7.33371 0.0292969 9.01263 0.0292969 11.0449C0.0292969 13.2258 1.80354 15 3.98438 15H13.6523C14.3793 15 14.9707 14.4086 14.9707 13.6816V3.36923C14.9707 3.25266 14.9244 3.14092 14.842 3.05848ZM12.041 1.50038L12.9958 2.4552L13.4703 2.92969H12.041V1.50038ZM0.908203 11.0449C0.908203 9.34872 2.28817 7.96875 3.98438 7.96875C5.68058 7.96875 7.06055 9.34872 7.06055 11.0449C7.06055 12.7411 5.68058 14.1211 3.98438 14.1211C2.28817 14.1211 0.908203 12.7411 0.908203 11.0449ZM13.6523 14.1211H6.46726C7.25719 13.4823 7.79701 12.5461 7.91493 11.4844H12.4805C12.7232 11.4844 12.9199 11.2876 12.9199 11.0449C12.9199 10.8022 12.7232 10.6055 12.4805 10.6055H7.9149C7.84324 9.96035 7.61596 9.36155 7.27131 8.84766H12.4805C12.7232 8.84766 12.9199 8.6509 12.9199 8.4082C12.9199 8.16551 12.7232 7.96875 12.4805 7.96875H6.46726C5.89535 7.50627 5.19252 7.19977 4.42383 7.11439V1.31836C4.42383 1.07604 4.62097 0.878906 4.86328 0.878906H11.1621V3.36914C11.1621 3.61184 11.3589 3.80859 11.6016 3.80859H14.0918V13.6816C14.0918 13.924 13.8947 14.1211 13.6523 14.1211Z" fill="black"/>
<path d="M12.4805 5.33203H6.03516C5.79246 5.33203 5.5957 5.52879 5.5957 5.77148C5.5957 6.01418 5.79246 6.21094 6.03516 6.21094H12.4805C12.7232 6.21094 12.9199 6.01418 12.9199 5.77148C12.9199 5.52879 12.7232 5.33203 12.4805 5.33203Z" fill="black"/>
<path d="M5.73066 9.94318C5.55907 9.77159 5.28081 9.77159 5.10918 9.94318L3.36916 11.6832L2.80097 11.115C2.62938 10.9434 2.35112 10.9434 2.1795 11.115C2.00788 11.2866 2.00788 11.5649 2.1795 11.7365L3.0584 12.6154C3.14421 12.7012 3.25668 12.7441 3.36916 12.7441C3.48163 12.7441 3.5941 12.7012 3.67988 12.6154L5.73066 10.5646C5.90228 10.393 5.90228 10.1148 5.73066 9.94318Z" fill="black"/>
</g>
<defs>
<clipPath id="clip0_7_1254">
<rect width="15" height="15" fill="white"/>
</clipPath>
</defs>
</svg>
