<svg width="34" height="33" viewBox="0 0 34 33" fill="none" xmlns="http://www.w3.org/2000/svg">
<g filter="url(#filter0_d_8_342)">
<path d="M17.9337 0.736282C15.4961 0.736282 13.1132 1.45912 11.0864 2.81338C9.05959 4.16764 7.47989 6.09251 6.54706 8.34456C5.61423 10.5966 5.37016 13.0747 5.84571 15.4655C6.32126 17.8563 7.49508 20.0523 9.21873 21.776C10.9424 23.4996 13.1384 24.6734 15.5292 25.149C17.92 25.6246 20.3981 25.3805 22.6501 24.4476C24.9022 23.5148 26.8271 21.9351 28.1813 19.9083C29.5356 17.8815 30.2584 15.4987 30.2584 13.061C30.2584 9.79232 28.9599 6.65746 26.6486 4.34612C24.3372 2.03478 21.2024 0.736282 17.9337 0.736282ZM23.7386 11.4712L18.8087 16.4011C18.6941 16.5166 18.5578 16.6083 18.4076 16.6708C18.2575 16.7334 18.0964 16.7656 17.9337 16.7656C17.771 16.7656 17.6099 16.7334 17.4597 16.6708C17.3095 16.6083 17.1732 16.5166 17.0586 16.4011L12.1287 11.4712C11.8966 11.2391 11.7662 10.9243 11.7662 10.5961C11.7662 10.2679 11.8966 9.95312 12.1287 9.72104C12.3608 9.48896 12.6755 9.35858 13.0038 9.35858C13.332 9.35858 13.6467 9.48896 13.8788 9.72104L17.9337 13.7882L21.9885 9.72104C22.2206 9.48896 22.5354 9.35858 22.8636 9.35858C23.1918 9.35858 23.5065 9.48896 23.7386 9.72104C23.9707 9.95312 24.1011 10.2679 24.1011 10.5961C24.1011 10.9243 23.9707 11.2391 23.7386 11.4712Z" fill="#397546"/>
</g>
<defs>
<filter id="filter0_d_8_342" x="0.608887" y="0.736282" width="32.6494" height="32.6495" filterUnits="userSpaceOnUse" color-interpolation-filters="sRGB">
<feFlood flood-opacity="0" result="BackgroundImageFix"/>
<feColorMatrix in="SourceAlpha" type="matrix" values="0 0 0 0 0 0 0 0 0 0 0 0 0 0 0 0 0 0 127 0" result="hardAlpha"/>
<feOffset dx="-1" dy="4"/>
<feGaussianBlur stdDeviation="2"/>
<feComposite in2="hardAlpha" operator="out"/>
<feColorMatrix type="matrix" values="0 0 0 0 0.20041 0 0 0 0 0.775781 0 0 0 0 0.32469 0 0 0 0.11 0"/>
<feBlend mode="normal" in2="BackgroundImageFix" result="effect1_dropShadow_8_342"/>
<feBlend mode="normal" in="SourceGraphic" in2="effect1_dropShadow_8_342" result="shape"/>
</filter>
</defs>
</svg>
