<svg width="18" height="18" viewBox="0 0 18 18" fill="none" xmlns="http://www.w3.org/2000/svg">
<path d="M8.57361 17.1475C8.35155 17.1475 8.13858 17.0593 7.98156 16.9023C7.82454 16.7453 7.73633 16.5323 7.73633 16.3103V0.837329C7.73633 0.615268 7.82454 0.402303 7.98156 0.245282C8.13858 0.0882618 8.35155 4.86374e-05 8.57361 4.86374e-05C8.79567 4.86374e-05 9.00863 0.0882618 9.16566 0.245282C9.32268 0.402303 9.41089 0.615268 9.41089 0.837329V16.3103C9.41089 16.5323 9.32268 16.7453 9.16566 16.9023C9.00863 17.0593 8.79567 17.1475 8.57361 17.1475Z" fill="black"/>
<path d="M16.3102 9.41099H0.83728C0.61522 9.41099 0.402254 9.32277 0.245234 9.16575C0.0882132 9.00873 0 8.79577 0 8.57371C0 8.35165 0.0882132 8.13868 0.245234 7.98166C0.402254 7.82464 0.61522 7.73643 0.83728 7.73643H16.3102C16.5323 7.73643 16.7452 7.82464 16.9023 7.98166C17.0593 8.13868 17.1475 8.35165 17.1475 8.57371C17.1475 8.79577 17.0593 9.00873 16.9023 9.16575C16.7452 9.32277 16.5323 9.41099 16.3102 9.41099Z" fill="black"/>
</svg>
