<svg width="15" height="15" viewBox="0 0 15 15" fill="none" xmlns="http://www.w3.org/2000/svg">
<path d="M13.4061 7.93011C12.9671 7.8633 12.5772 8.16423 12.5142 8.59327C12.3561 9.67085 11.8587 10.654 11.0759 11.4369C9.08339 13.4294 5.8438 13.4278 3.8521 11.4369C1.8608 9.44522 1.8608 6.20444 3.8521 4.21314C4.60117 3.46447 5.5468 2.97633 6.60513 2.79863C7.06026 2.71226 7.54958 2.69732 8.05728 2.75485C8.7544 2.8351 9.40326 3.0664 9.99538 3.40599L8.97218 3.58071C8.54472 3.65403 8.25683 4.06004 8.33055 4.4879C8.39578 4.87088 8.72815 5.1414 9.10422 5.1414C9.14799 5.1414 9.19248 5.13794 9.23775 5.13024L11.9808 4.66128C12.1857 4.62599 12.3691 4.51085 12.4897 4.34046C12.6102 4.17047 12.6578 3.95937 12.6224 3.75369L12.1527 1.01104C12.0805 0.583573 11.6799 0.29726 11.2455 0.369015C10.818 0.442342 10.5301 0.848745 10.6038 1.2766L10.7275 1.99848C9.96677 1.57172 9.12764 1.29562 8.23608 1.19298C7.56836 1.11698 6.9206 1.13812 6.3277 1.25169C4.9627 1.48039 3.72243 2.12014 2.74072 3.10176C0.136555 5.70593 0.136555 9.94334 2.74072 12.5482C4.04277 13.8507 5.75358 14.5016 7.46399 14.5016C9.1748 14.5016 10.8847 13.8507 12.1873 12.5482C13.2104 11.5251 13.8612 10.2365 14.0692 8.82198C14.1322 8.39215 13.8351 7.99298 13.4061 7.93011Z" fill="black"/>
</svg>
