<svg width="15" height="16" viewBox="0 0 15 16" fill="none" xmlns="http://www.w3.org/2000/svg">
<g clip-path="url(#clip0_7_1294)">
<path d="M10.8113 4.69198L11.6887 5.58135L7.44375 9.77323C7.20187 10.0151 6.88312 10.1364 6.56375 10.1364C6.24437 10.1364 5.92313 10.0145 5.67875 9.77073L3.31313 7.45885L4.18625 6.56448L6.55688 8.88135L10.8113 4.69198ZM15 2.63635V13.2614H10.7175L8.31312 15.2489C8.08687 15.4501 7.7975 15.5514 7.505 15.5514C7.2075 15.5514 6.90812 15.4464 6.66937 15.2345L4.32687 13.2614H0V2.63635C0 1.6026 0.84125 0.761353 1.875 0.761353H13.125C14.1587 0.761353 15 1.6026 15 2.63635ZM13.75 2.63635C13.75 2.29198 13.47 2.01135 13.125 2.01135H1.875C1.53062 2.01135 1.25 2.29198 1.25 2.63635V12.0114H4.78375L7.4875 14.2895L10.2675 12.0114H13.75V2.63635Z" fill="black"/>
</g>
<defs>
<clipPath id="clip0_7_1294">
<rect width="15" height="15" fill="white" transform="translate(0 0.761353)"/>
</clipPath>
</defs>
</svg>
