<svg width="17" height="19" viewBox="0 0 17 19" fill="none" xmlns="http://www.w3.org/2000/svg">
<g clip-path="url(#clip0_35_1051)">
<path d="M15.8483 9.55616V7.43345C15.8483 6.39057 15.0975 5.53833 14.162 5.50112V4.19819C14.162 3.51953 13.6625 2.96739 13.0485 2.96739H9.98267L9.58677 1.75111C9.48582 1.44095 9.28149 1.1931 9.01143 1.05325C8.74137 0.913359 8.43829 0.898449 8.15808 1.01119L2.59478 3.24918C2.31485 3.36178 2.09153 3.58821 1.96592 3.88677C1.84031 4.18532 1.82755 4.52 1.93003 4.82917L2.15354 5.50348C1.23929 5.56597 0.512695 6.40748 0.512695 7.43345V16.9985C0.512695 18.065 1.29771 18.9327 2.26261 18.9327H14.0984C15.0633 18.9327 15.8483 18.065 15.8483 16.9985V14.8055C16.3872 14.7199 16.8028 14.2064 16.8028 13.5875V10.7742C16.8028 10.1552 16.3872 9.64175 15.8483 9.55616ZM15.8483 13.5875C15.8483 13.6844 15.777 13.7633 15.6892 13.7633H13.1439C12.3544 13.7633 11.7122 13.0534 11.7122 12.1808C11.7122 11.3083 12.3544 10.5984 13.1439 10.5984H15.6892C15.777 10.5984 15.8483 10.6772 15.8483 10.7742V13.5875ZM2.82627 4.46626C2.80652 4.40666 2.82099 4.35633 2.8314 4.33161C2.8418 4.30693 2.86729 4.26223 2.92125 4.24053L8.48452 2.00255C8.53854 1.98085 8.58407 1.99699 8.60644 2.00856C8.6288 2.02013 8.66918 2.04848 8.68862 2.10826L8.96829 2.96743H8.75321C8.13918 2.96743 7.63963 3.51957 7.63963 4.19823V5.49936H3.16872L2.82627 4.46626ZM13.2075 4.19819V5.49933H8.59412V4.19819C8.59412 4.10124 8.66549 4.02237 8.75321 4.02237H13.0485C13.1362 4.02237 13.2075 4.10124 13.2075 4.19819ZM14.0984 17.8777H2.26261C1.82402 17.8777 1.46719 17.4833 1.46719 16.9985V7.43345C1.46719 6.94869 1.82402 6.5543 2.26261 6.5543H14.0984C14.537 6.5543 14.8938 6.94869 14.8938 7.43345V9.54339H13.1439C11.8281 9.54339 10.7577 10.7265 10.7577 12.1808C10.7577 13.6351 11.8281 14.8183 13.1439 14.8183H14.8938V16.9985C14.8938 17.4833 14.537 17.8777 14.0984 17.8777Z" fill="#397546"/>
<path d="M13.1438 12.7078C13.4073 12.7078 13.621 12.4716 13.621 12.1803C13.621 11.889 13.4073 11.6528 13.1438 11.6528C12.8802 11.6528 12.6665 11.889 12.6665 12.1803C12.6665 12.4716 12.8802 12.7078 13.1438 12.7078Z" fill="#397546"/>
</g>
<defs>
<clipPath id="clip0_35_1051">
<rect x="0.512695" y="0.93158" width="16.2901" height="18.0049" rx="8.14506" fill="white"/>
</clipPath>
</defs>
</svg>
