<svg width="170" height="174" viewBox="0 0 170 174" fill="none" xmlns="http://www.w3.org/2000/svg">
<g filter="url(#filter0_i_35_763)">
<path d="M135.049 92.2274C142.487 78.5867 139.077 61.5115 127.053 51.6725C106.369 34.7478 75.1096 41.66 63.7567 65.8548L63.2557 66.9226C55.3007 83.8758 53.3571 103.033 57.745 121.238L60.8471 134.109L77.7748 131.54C82.703 130.792 87.5529 129.596 92.2641 127.968L94.0371 127.355C104.196 123.844 113.463 118.15 121.186 110.674C126.526 105.505 131.052 99.5559 134.611 93.0305L135.049 92.2274Z" fill="url(#paint0_linear_35_763)"/>
</g>
<g filter="url(#filter1_i_35_763)">
<circle cx="59.748" cy="135.262" r="2.08137" transform="rotate(60 59.748 135.262)" fill="url(#paint1_linear_35_763)"/>
</g>
<defs>
<filter id="filter0_i_35_763" x="55.4508" y="22.3427" width="100.518" height="111.766" filterUnits="userSpaceOnUse" color-interpolation-filters="sRGB">
<feFlood flood-opacity="0" result="BackgroundImageFix"/>
<feBlend mode="normal" in="SourceGraphic" in2="BackgroundImageFix" result="shape"/>
<feColorMatrix in="SourceAlpha" type="matrix" values="0 0 0 0 0 0 0 0 0 0 0 0 0 0 0 0 0 0 127 0" result="hardAlpha"/>
<feOffset dx="17" dy="-20"/>
<feGaussianBlur stdDeviation="19"/>
<feComposite in2="hardAlpha" operator="arithmetic" k2="-1" k3="1"/>
<feColorMatrix type="matrix" values="0 0 0 0 0.296507 0 0 0 0 0.900781 0 0 0 0 0.42703 0 0 0 0.31 0"/>
<feBlend mode="normal" in2="shape" result="effect1_innerShadow_35_763"/>
</filter>
<filter id="filter1_i_35_763" x="57.6663" y="113.18" width="21.1635" height="24.1634" filterUnits="userSpaceOnUse" color-interpolation-filters="sRGB">
<feFlood flood-opacity="0" result="BackgroundImageFix"/>
<feBlend mode="normal" in="SourceGraphic" in2="BackgroundImageFix" result="shape"/>
<feColorMatrix in="SourceAlpha" type="matrix" values="0 0 0 0 0 0 0 0 0 0 0 0 0 0 0 0 0 0 127 0" result="hardAlpha"/>
<feOffset dx="17" dy="-20"/>
<feGaussianBlur stdDeviation="19"/>
<feComposite in2="hardAlpha" operator="arithmetic" k2="-1" k3="1"/>
<feColorMatrix type="matrix" values="0 0 0 0 0.296507 0 0 0 0 0.900781 0 0 0 0 0.42703 0 0 0 0.31 0"/>
<feBlend mode="normal" in2="shape" result="effect1_innerShadow_35_763"/>
</filter>
<linearGradient id="paint0_linear_35_763" x1="47.5463" y1="203.275" x2="1.47616" y2="167.21" gradientUnits="userSpaceOnUse">
<stop stop-color="#FF0000"/>
<stop offset="1" stop-color="#670000"/>
</linearGradient>
<linearGradient id="paint1_linear_35_763" x1="58.041" y1="139.787" x2="60.9183" y2="139.639" gradientUnits="userSpaceOnUse">
<stop stop-color="#FF0000"/>
<stop offset="1" stop-color="#670000"/>
</linearGradient>
</defs>
</svg>
