<svg viewBox="0 0 16 16" fill="none" xmlns="http://www.w3.org/2000/svg">
                                  <g clip-path="url(#clip0_35_1100)">
                                    <path d="M9.49512 1.55142H5.74512C2.35004 1.55142 0.901367 2.99978 0.901367 6.39517V10.1452C0.901367 13.5406 2.35004 14.9889 5.74512 14.9889H9.49512C12.8902 14.9889 14.3389 13.5406 14.3389 10.1452V6.39517C14.3389 2.99978 12.8902 1.55142 9.49512 1.55142ZM5.27637 14.0404C2.75096 13.929 1.83887 12.8663 1.83887 10.1452V6.39517C1.83887 3.67403 2.75096 2.61133 5.27637 2.49991V14.0404ZM13.4014 10.1452C13.4014 13.0291 12.379 14.0514 9.49512 14.0514H6.21387V2.48892H9.49512C12.379 2.48892 13.4014 3.51126 13.4014 6.39517V10.1452Z" fill="black"/>
                                  </g>
                                  <defs>
                                    <clipPath id="clip0_35_1100">
                                      <rect width="15" height="15" fill="white" transform="translate(0.120117 0.770172)"/>
                                    </clipPath>
                                  </defs>
</svg>