<?xml version="1.0" encoding="utf-8"?>
<!-- Generator: Adobe Illustrator 24.0.1, SVG Export Plug-In . SVG Version: 6.00 Build 0)  -->
<svg version="1.1" id="Layer_1" xmlns="http://www.w3.org/2000/svg" xmlns:xlink="http://www.w3.org/1999/xlink" x="0px" y="0px"
	 viewBox="0 0 65.19508 57.73562" style="enable-background:new 0 0 65.19508 57.73562;" xml:space="preserve">
<style type="text/css">
	.st0{fill:#FF875B;}
</style>
<path class="st0" d="M40.98592,0H24.20888c-0.56,0-1.01001,0.45102-1.02197,1.01202
	c-0.33899,15.755-8.58203,30.70898-22.77002,41.30099c-0.45001,0.33701-0.55298,0.96799-0.224,1.423l9.81598,13.573
	c0.33405,0.46201,0.98505,0.56598,1.44299,0.22699c8.87103-6.57901,16.00702-14.517,21.14606-23.315
	c5.138,8.798,12.27399,16.73599,21.146,23.315c0.45697,0.33899,1.10797,0.23502,1.44196-0.22699l9.81604-13.573
	c0.32898-0.45502,0.22699-1.086-0.224-1.423C50.58986,31.72101,42.34688,16.76703,42.00789,1.01202
	C41.99587,0.45102,41.54689,0,40.98592,0"/>
</svg>
