<svg width="26" height="26" viewBox="0 0 26 26" fill="none" xmlns="http://www.w3.org/2000/svg">
                                <g clip-path="url(#clip0_35_779)">
                                  <path d="M12.5338 25.0448C19.1503 25.0448 24.5338 19.6613 24.5338 13.0448C24.5338 6.4283 19.1503 1.0448 12.5338 1.0448C5.91731 1.0448 0.533811 6.4283 0.533811 13.0448C0.53381 19.6613 5.91731 25.0448 12.5338 25.0448ZM12.5338 2.0448C18.5993 2.0448 23.5338 6.9793 23.5338 13.0448C23.5338 19.1103 18.5993 24.0448 12.5338 24.0448C6.46831 24.0448 1.53381 19.1103 1.53381 13.0448C1.53381 6.9793 6.46831 2.0448 12.5338 2.0448Z" fill="#397546"/>
                                  <path d="M10.3873 20.3983L17.7408 13.0448L10.3873 5.69132L9.68031 6.39832L16.3268 13.0448L9.68031 19.6913L10.3873 20.3983Z" fill="#397546"/>
                                </g>
                                <defs>
                                  <clipPath id="clip0_35_779">
                                    <rect width="25" height="25" fill="white" transform="translate(25.0338 25.5448) rotate(-180)"/>
                                  </clipPath>
                                </defs>
</svg>