<svg width="67" height="67" viewBox="0 0 67 67" fill="none" xmlns="http://www.w3.org/2000/svg">
<g clip-path="url(#clip0_7_379)">
<path d="M33.6 66.9269C51.9359 66.9269 66.8 52.0627 66.8 33.7269C66.8 15.391 51.9359 0.526855 33.6 0.526855C15.2642 0.526855 0.400024 15.391 0.400024 33.7269C0.400024 52.0627 15.2642 66.9269 33.6 66.9269Z" fill="#317941"/>
<path d="M66.8001 33.7268L48.5384 15.4668L46.0484 17.9568H16.1701C14.7947 17.9568 13.6801 19.0715 13.6801 20.4468V43.6868C13.6801 44.4272 14.0096 45.0845 14.5217 45.5402C14.5864 45.6132 18.558 49.5848 18.6302 49.6495C18.6401 49.6611 18.6493 49.6736 18.6592 49.6852V51.9868L33.5992 66.9268C51.9356 66.9268 66.8001 52.0632 66.8001 33.7268Z" fill="#21512C"/>
<path d="M16.1701 46.1768H47.7101C49.0854 46.1768 50.2001 45.0621 50.2001 43.6868V20.4468C50.2001 19.0715 49.0854 17.9568 47.7101 17.9568H16.1701C14.7947 17.9568 13.6801 19.0715 13.6801 20.4468V43.6868C13.6801 45.0621 14.7947 46.1768 16.1701 46.1768Z" fill="#D9F9E0"/>
<path d="M24.47 46.1768H18.66V51.9868L24.47 46.1768Z" fill="#D9F9E0"/>
<path d="M18.66 26.2567H36.09V27.9167H18.66V26.2567Z" fill="#317941"/>
<path d="M18.66 29.5767H36.09V31.2367H18.66V29.5767Z" fill="#317941"/>
<path d="M18.66 32.8967H45.22V34.5567H18.66V32.8967Z" fill="#317941"/>
<path d="M18.66 36.2167H45.22V37.8767H18.66V36.2167Z" fill="#317941"/>
<path d="M18.66 39.5367H36.09V41.1967H18.66V39.5367Z" fill="#317941"/>
<path d="M18.66 22.9368H20.32V24.5968H18.66V22.9368Z" fill="#317941"/>
<path d="M21.98 22.9368H23.64V24.5968H21.98V22.9368Z" fill="#317941"/>
<path d="M25.3 22.9368H26.96V24.5968H25.3V22.9368Z" fill="#317941"/>
<path d="M48.5383 15.4668L37.75 26.2568V31.2368H42.73L53.52 20.4468L48.5383 15.4668Z" fill="#A6D6B9"/>
<path d="M45.4559 18.5471L46.6296 17.3735L51.6086 22.3526L50.435 23.5262L45.4559 18.5471Z" fill="#317941"/>
</g>
<defs>
<clipPath id="clip0_7_379">
<rect width="66.4" height="66.4" fill="white" transform="translate(0.400024 0.526855)"/>
</clipPath>
</defs>
</svg>
