<svg width="86" height="86" viewBox="0 0 86 86" fill="none" xmlns="http://www.w3.org/2000/svg">
<g clip-path="url(#clip0_887_450)">
<path d="M43.2324 85.2976C66.7045 85.2976 85.7324 66.2697 85.7324 42.7976C85.7324 19.3255 66.7045 0.297607 43.2324 0.297607C19.7603 0.297607 0.732422 19.3255 0.732422 42.7976C0.732422 66.2697 19.7603 85.2976 43.2324 85.2976Z" fill="#317941"/>
<path d="M85.7324 42.7976C85.7324 40.4762 85.5435 38.1991 85.1854 35.9788L68.0979 18.8914L66.9594 29.3369L56.5137 18.8914L56.213 32.8999H47.8438L33.8353 18.8914L32.0073 28.6476L22.2512 18.8914L19.6959 39.5276L3.33936 57.4845L28.5455 82.6907C33.1229 84.3764 38.07 85.2976 43.2324 85.2976C66.7045 85.2976 85.7324 66.2697 85.7324 42.7976Z" fill="#21512C"/>
<path d="M81.6801 55.9092C77.0669 55.3079 71.8552 51.3092 66.1897 44.0243C63.3087 40.3197 61.0618 36.7324 59.9723 34.9119H25.5864C19.7165 45.2502 6.4817 55.0343 5.89782 55.4629L3.04883 51.5818C3.18878 51.4791 17.0899 41.1956 21.994 31.4249L22.6603 30.0974H62.764L63.4536 31.3276C63.4803 31.3754 66.2085 36.2139 70.0252 41.1137C74.7334 47.158 79.0935 50.7169 82.3022 51.1351L81.6801 55.9092Z" fill="#D9F9E0"/>
<path d="M70.0252 41.1137C66.2085 36.2139 63.4804 31.3752 63.4536 31.3276L62.764 30.0974H43.165V34.9119H59.9721C61.0617 36.7322 63.3087 40.3197 66.1896 44.0243C71.855 51.3094 77.0668 55.308 81.68 55.9092L82.3022 51.1351C79.0935 50.7169 74.7334 47.158 70.0252 41.1137Z" fill="#D9F9E0"/>
<path d="M52.6294 18.8914H56.5135V29.5164H52.6294V18.8914Z" fill="#D9F9E0"/>
<path d="M64.2139 18.8914H68.098V29.5164H64.2139V18.8914Z" fill="#D9F9E0"/>
<path d="M18.3667 18.8914H22.2508V29.5164H18.3667V18.8914Z" fill="#D9F9E0"/>
<path d="M29.9512 18.8914H33.8353V29.5164H29.9512V18.8914Z" fill="#D9F9E0"/>
<path d="M18.3667 26.03H33.835V63.0528H18.3667V26.03Z" fill="#A6D2AF"/>
<path d="M52.6294 26.03H68.0977V63.0528H52.6294V26.03Z" fill="#A6D2AF"/>
<path d="M3.33924 57.4844H83.1254C84.0595 54.9479 84.7568 52.2972 85.1946 49.5598H1.27002C1.7078 52.2971 2.40507 54.9479 3.33924 57.4844Z" fill="#D9F9E0"/>
<path d="M85.1945 49.5598H43.165V57.4844H83.1253C84.0595 54.948 84.7568 52.2972 85.1945 49.5598Z" fill="#D9F9E0"/>
</g>
<defs>
<clipPath id="clip0_887_450">
<rect width="85" height="85" fill="white" transform="translate(0.732422 0.297607)"/>
</clipPath>
</defs>
</svg>
