<svg width="31" height="32" viewBox="0 0 31 32" fill="none" xmlns="http://www.w3.org/2000/svg">
                    <g clip-path="url(#clip0_35_823)">
                      <path d="M25.8553 6.42214C23.9093 5.52926 21.8234 4.87168 19.6421 4.4952C19.6026 4.48757 19.5632 4.50664 19.5416 4.54226C19.2732 5.01922 18.9756 5.64246 18.7683 6.13087C16.4216 5.77982 14.0876 5.77982 11.7893 6.13087C11.582 5.63101 11.2729 5.01922 11.0045 4.54226C10.9829 4.50664 10.9435 4.48884 10.9041 4.4952C8.72402 4.87041 6.63809 5.52798 4.6908 6.42214C4.67426 6.4285 4.659 6.44121 4.6501 6.45648C0.693195 12.3683 -0.391742 18.1351 0.139915 23.8307C0.142459 23.8587 0.157722 23.8854 0.179344 23.902C2.79057 25.82 5.31912 26.9838 7.80188 27.7546C7.84131 27.7673 7.88329 27.752 7.90872 27.719C8.49634 26.9177 9.0191 26.0718 9.46808 25.1828C9.49479 25.1306 9.46935 25.0683 9.41466 25.0479C8.58411 24.7325 7.79425 24.3484 7.03365 23.9134C6.97387 23.8778 6.96878 23.7926 7.02348 23.7506C7.18374 23.631 7.344 23.5064 7.49663 23.3805C7.52461 23.3576 7.56277 23.3525 7.59583 23.3678C12.5919 25.6483 18 25.6483 22.9363 23.3678C22.9694 23.3525 23.0075 23.3563 23.0368 23.3805C23.1894 23.5064 23.3497 23.6323 23.5112 23.7519C23.5672 23.7926 23.5634 23.8791 23.5023 23.9147C22.7417 24.3586 21.9519 24.7351 21.12 25.0479C21.0653 25.0683 21.0424 25.1319 21.0679 25.184C21.5258 26.0718 22.0498 26.9177 22.626 27.719C22.6501 27.7533 22.6934 27.7673 22.7328 27.7558C25.227 26.9838 27.7568 25.82 30.3668 23.9032C30.3897 23.8867 30.4037 23.8613 30.4062 23.8333C31.0422 17.2486 29.3404 11.5288 25.8935 6.45902C25.8871 6.44121 25.8719 6.4285 25.8553 6.42214ZM10.2147 20.3635C8.71002 20.3635 7.47119 18.9822 7.47119 17.2868C7.47119 15.5913 8.68586 14.21 10.2147 14.21C11.755 14.21 12.9824 15.6028 12.9582 17.2868C12.9582 18.9835 11.7423 20.3635 10.2147 20.3635ZM20.3582 20.3635C18.8548 20.3635 17.6146 18.9822 17.6146 17.2868C17.6146 15.5913 18.8293 14.21 20.3582 14.21C21.8984 14.21 23.1258 15.6028 23.1017 17.2868C23.1017 18.9835 21.8984 20.3635 20.3582 20.3635Z" fill="white"/>
                    </g>
                    <defs>
                      <clipPath id="clip0_35_823">
                        <rect width="30.5258" height="30.5258" fill="white" transform="translate(0.0140076 0.863892)"/>
                      </clipPath>
                    </defs>
                  </svg>