<svg width="30" height="29" viewBox="0 0 30 29" fill="none" xmlns="http://www.w3.org/2000/svg">
                    <g clip-path="url(#clip0_35_826)">
                      <path d="M15.053 1.15625C6.96307 1.15625 0.402466 7.46806 0.402466 15.2543C0.402466 21.4818 4.60037 26.7651 10.4247 28.6309C11.1573 28.7608 11.4247 28.3255 11.4247 27.9516C11.4247 27.6164 11.4119 26.73 11.4046 25.554C7.32937 26.4053 6.46855 23.6636 6.46855 23.6636C5.8037 22.0347 4.84213 21.6012 4.84213 21.6012C3.5106 20.7271 4.94104 20.7446 4.94104 20.7446C6.41177 20.8447 7.18468 22.198 7.18468 22.198C8.49241 24.3516 10.6152 23.7303 11.4504 23.3687C11.5822 22.4577 11.9614 21.8364 12.3808 21.4836C9.12795 21.1273 5.70662 19.9179 5.70662 14.5171C5.70662 12.9777 6.27807 11.7192 7.21582 10.7328C7.0638 10.3765 6.56196 8.94246 7.35868 7.00293C7.35868 7.00293 8.58948 6.6238 11.3881 8.44748C12.5566 8.13505 13.8094 7.97884 15.0567 7.97357C16.3003 7.98059 17.5549 8.13505 18.7253 8.44924C21.522 6.62555 22.751 7.00468 22.751 7.00468C23.5495 8.94597 23.0477 10.3782 22.8975 10.7346C23.8371 11.721 24.403 12.9795 24.403 14.5188C24.403 19.9337 20.9781 21.1255 17.7142 21.4748C18.2399 21.9101 18.7088 22.7702 18.7088 24.0848C18.7088 25.97 18.6905 27.49 18.6905 27.9516C18.6905 28.329 18.9542 28.7678 19.6978 28.6291C25.513 26.7616 29.7072 21.4801 29.7072 15.2543C29.7072 7.46806 23.1466 1.15625 15.053 1.15625Z" fill="white"/>
                    </g>
                    <defs>
                      <clipPath id="clip0_35_826">
                        <rect width="29.3047" height="28.0837" fill="white" transform="translate(0.402466 0.863892)"/>
                      </clipPath>
                    </defs>
                  </svg>