<svg width="15" height="16" viewBox="0 0 15 16" fill="none" xmlns="http://www.w3.org/2000/svg">
<g clip-path="url(#clip0_7_1266)">
<path d="M7.5 0.761353C3.35476 0.761353 0 4.11573 0 8.26135C0 12.4065 3.35438 15.7614 7.5 15.7614C11.6452 15.7614 15 12.407 15 8.26135C15 4.11611 11.6456 0.761353 7.5 0.761353ZM7.5 14.7148C3.94154 14.7148 1.04651 11.8198 1.04651 8.26135C1.04651 4.70287 3.94154 1.80787 7.5 1.80787C11.0585 1.80787 13.9535 4.70287 13.9535 8.26135C13.9535 11.8198 11.0585 14.7148 7.5 14.7148Z" fill="black"/>
<path d="M7.27764 10.2513C6.863 10.2513 6.52734 10.5968 6.52734 11.0114C6.52734 11.4162 6.85313 11.7716 7.27764 11.7716C7.70215 11.7716 8.03777 11.4162 8.03777 11.0114C8.03777 10.5968 7.69225 10.2513 7.27764 10.2513Z" fill="black"/>
<path d="M7.40676 4.49579C6.07398 4.49579 5.46191 5.2856 5.46191 5.81869C5.46191 6.20371 5.7877 6.38142 6.05424 6.38142C6.58735 6.38142 6.37018 5.62123 7.37714 5.62123C7.87073 5.62123 8.26565 5.83843 8.26565 6.29257C8.26565 6.82565 7.71279 7.13169 7.38701 7.4081C7.10069 7.65487 6.72558 8.05967 6.72558 8.90869C6.72558 9.42203 6.8638 9.57012 7.26854 9.57012C7.75226 9.57012 7.85099 9.35295 7.85099 9.16533C7.85099 8.65199 7.86086 8.35583 8.40385 7.93132C8.67039 7.72401 9.50951 7.05267 9.50951 6.12469C9.50951 5.19672 8.67039 4.49579 7.40676 4.49579Z" fill="black"/>
</g>
<defs>
<clipPath id="clip0_7_1266">
<rect width="15" height="15" fill="white" transform="translate(0 0.761353)"/>
</clipPath>
</defs>
</svg>
