<svg width="49" height="50" viewBox="0 0 49 50" fill="none" xmlns="http://www.w3.org/2000/svg">
                                <path fill-rule="evenodd" clip-rule="evenodd" d="M11.1067 30.3948C10.5524 29.6098 9.6377 29.0963 8.60461 29.0963H7.14584C5.45534 29.0963 4.08334 30.4693 4.08334 32.1588V43.0481C4.08334 44.7386 5.45534 46.1106 7.14584 46.1106H8.60461C9.91434 46.1106 11.0332 45.2857 11.4701 44.1281L13.7333 45.6103C14.2314 45.937 14.8154 46.1106 15.4115 46.1106H28.6558C28.8631 46.1106 29.0642 46.0483 29.2336 45.9309L43.5906 36.0727C43.6294 36.0462 43.6662 36.0166 43.7019 35.9849C45.2444 34.5741 45.3311 32.1986 43.8958 30.6827C42.5055 29.2137 40.1841 29.0994 38.6528 30.401C38.6559 30.3989 25.6331 37.263 25.6331 37.263H19.6511C19.0722 37.263 18.5935 36.8118 18.5935 36.2422C18.5935 35.7491 19.0508 35.2213 19.6511 35.2213H24.5C26.5978 35.2213 28.2914 33.539 28.2914 31.479C28.2914 29.4179 26.5978 27.7356 24.5 27.7356H16.1108C14.8378 27.7356 12.7421 28.5992 11.1067 30.3948ZM9.62545 43.0481V32.1588C9.62545 31.5953 9.16709 31.138 8.60461 31.138H7.14584C6.58234 31.138 6.12501 31.5953 6.12501 32.1588V43.0481C6.12501 43.6116 6.58234 44.0689 7.14584 44.0689H8.60461C9.16709 44.0689 9.62545 43.6116 9.62545 43.0481ZM11.6671 41.8159L14.8521 43.9025C15.0185 44.0107 15.2125 44.0689 15.4115 44.0689H28.3394C28.3394 44.0689 42.3697 34.4353 42.3728 34.4312C43.022 33.7911 43.0455 32.754 42.4126 32.0863C41.7521 31.3881 40.6373 31.3493 39.9268 31.9986C39.8625 32.0578 39.7911 32.1078 39.7145 32.1486L26.361 39.1873C26.215 39.2648 26.0517 39.3047 25.8853 39.3047H19.6511C17.935 39.3047 16.5518 37.9286 16.5518 36.2422C16.5518 34.7803 17.8717 33.1797 19.6511 33.1797H24.5C25.4606 33.1797 26.2497 32.4222 26.2497 31.479C26.2497 30.5347 25.4606 29.7772 24.5 29.7772H16.1108C14.9246 29.7772 12.8584 30.9297 11.6671 33.0929V41.8159ZM32.6667 8.16516V10.4447C32.3318 10.4028 31.9919 10.3814 31.6458 10.3814C29.2081 10.3814 27.0174 11.4522 25.5208 13.1478V8.16516C26.7101 7.74458 27.5625 6.60941 27.5625 5.27722C27.5625 3.58672 26.1905 2.21472 24.5 2.21472C22.8095 2.21472 21.4375 3.58672 21.4375 5.27722C21.4375 6.60941 22.2899 7.74458 23.4792 8.16516V14.4647H18.9528L16.3333 10.0986V8.16516C17.5226 7.74458 18.375 6.60941 18.375 5.27722C18.375 3.58672 17.003 2.21472 15.3125 2.21472C13.622 2.21472 12.25 3.58672 12.25 5.27722C12.25 6.60941 13.1024 7.74458 14.2917 8.16516V10.3814C14.2917 10.5662 14.3417 10.7479 14.4377 10.9061L16.5722 14.4647H13.2708C13.0003 14.4647 12.74 14.5719 12.5491 14.7638L9.48661 17.8263C9.08747 18.2245 9.08747 18.8717 9.48661 19.2698L12.5491 22.3323C12.74 22.5242 13.0003 22.6314 13.2708 22.6314H15.3125C15.4707 22.6314 15.6269 22.5946 15.7688 22.5232L17.3542 21.731L18.9395 22.5232C19.0814 22.5946 19.2376 22.6314 19.3958 22.6314H24.5735C25.9853 25.0712 28.6252 26.7147 31.6458 26.7147C36.1528 26.7147 39.8125 23.055 39.8125 18.5481C39.8125 15.1232 37.7004 12.1883 34.7083 10.9755V8.16516C35.8976 7.74458 36.75 6.60941 36.75 5.27722C36.75 3.58672 35.378 2.21472 33.6875 2.21472C31.997 2.21472 30.625 3.58672 30.625 5.27722C30.625 6.60941 31.4774 7.74458 32.6667 8.16516ZM25.1891 16.5064C25.5831 16.5064 25.9414 16.2798 26.1109 15.9235C27.0939 13.8553 29.204 12.4231 31.6458 12.4231C35.0258 12.4231 37.7708 15.1681 37.7708 18.5481C37.7708 21.928 35.0258 24.6731 31.6458 24.6731C29.204 24.6731 27.0939 23.2408 26.1109 21.1726C25.9414 20.8163 25.5831 20.5897 25.1891 20.5897H19.6368L17.8105 19.6771C17.5236 19.5332 17.1847 19.5332 16.8979 19.6771L15.0716 20.5897H13.6935L11.6518 18.5481L13.6935 16.5064H25.1891ZM35.7292 18.5481C35.7292 16.2941 33.8998 14.4647 31.6458 14.4647C29.3918 14.4647 27.5625 16.2941 27.5625 18.5481C27.5625 20.8021 29.3918 22.6314 31.6458 22.6314C33.8998 22.6314 35.7292 20.8021 35.7292 18.5481ZM33.6875 18.5481C33.6875 19.6751 32.7728 20.5897 31.6458 20.5897C30.5188 20.5897 29.6042 19.6751 29.6042 18.5481C29.6042 17.4211 30.5188 16.5064 31.6458 16.5064C32.7728 16.5064 33.6875 17.4211 33.6875 18.5481ZM15.3125 4.25639C15.876 4.25639 16.3333 4.71372 16.3333 5.27722C16.3333 5.84072 15.876 6.29806 15.3125 6.29806C14.749 6.29806 14.2917 5.84072 14.2917 5.27722C14.2917 4.71372 14.749 4.25639 15.3125 4.25639ZM33.6875 4.25639C34.251 4.25639 34.7083 4.71372 34.7083 5.27722C34.7083 5.84072 34.251 6.29806 33.6875 6.29806C33.124 6.29806 32.6667 5.84072 32.6667 5.27722C32.6667 4.71372 33.124 4.25639 33.6875 4.25639ZM24.5 4.25639C25.0635 4.25639 25.5208 4.71372 25.5208 5.27722C25.5208 5.84072 25.0635 6.29806 24.5 6.29806C23.9365 6.29806 23.4792 5.84072 23.4792 5.27722C23.4792 4.71372 23.9365 4.25639 24.5 4.25639Z" fill="url(#paint0_linear_35_808)"/>
                                <defs>
                                  <linearGradient id="paint0_linear_35_808" x1="4.08334" y1="24.1626" x2="25.2207" y2="24.3128" gradientUnits="userSpaceOnUse">
                                    <stop stop-color="#33C653"/>
                                    <stop offset="1" stop-color="#397546"/>
                                  </linearGradient>
                                </defs>
                            </svg>