<svg viewBox="0 0 17 16" fill="none" xmlns="http://www.w3.org/2000/svg">
                                  <g clip-path="url(#clip0_35_1106)">
                                    <path fill-rule="evenodd" clip-rule="evenodd" d="M4.9381 12.9697H3.2603C3.12908 12.9697 3.0166 12.873 3.0166 12.75V5.72014C3.0166 5.58833 3.12908 5.49167 3.2603 5.49167H4.9381C5.06933 5.49167 5.1818 5.58833 5.1818 5.72014V12.75C5.1818 12.873 5.06933 12.9697 4.9381 12.9697Z" fill="black"/>
                                    <path fill-rule="evenodd" clip-rule="evenodd" d="M10.7866 12.9697H9.11821C8.98699 12.9697 8.87451 12.873 8.87451 12.75V7.29308C8.87451 7.17005 8.98699 7.06461 9.11821 7.06461H10.7866C10.9272 7.06461 11.0303 7.17005 11.0303 7.29308V12.75C11.0303 12.873 10.9272 12.9697 10.7866 12.9697Z" fill="black"/>
                                    <path fill-rule="evenodd" clip-rule="evenodd" d="M7.92775 12.9697H6.24995C6.11873 12.9697 6.01562 12.873 6.01562 12.75V6.55494C6.01562 6.43191 6.11873 6.32647 6.24995 6.32647H7.92775C8.05898 6.32647 8.17145 6.43191 8.17145 6.55494V12.75C8.17145 12.873 8.05898 12.9697 7.92775 12.9697Z" fill="black"/>
                                    <path fill-rule="evenodd" clip-rule="evenodd" d="M13.6548 12.9697H11.9864C11.8458 12.9697 11.7427 12.873 11.7427 12.75V7.94334C11.7427 7.82031 11.8458 7.71487 11.9864 7.71487H13.6548C13.786 7.71487 13.8985 7.82031 13.8985 7.94334V12.75C13.8985 12.873 13.786 12.9697 13.6548 12.9697Z" fill="black"/>
                                    <path fill-rule="evenodd" clip-rule="evenodd" d="M13.5987 14.4548H1.51665C1.37605 14.4548 1.27295 14.3581 1.27295 14.2263V4.17357C1.27295 4.05054 1.37605 3.9451 1.51665 3.9451C1.64788 3.9451 1.75098 4.05054 1.75098 4.17357V13.9978H13.5987C13.7299 13.9978 13.833 14.1033 13.833 14.2263C13.833 14.3581 13.7299 14.4548 13.5987 14.4548Z" fill="black"/>
                                    <path fill-rule="evenodd" clip-rule="evenodd" d="M2.27592 5.99255H0.748097C0.616873 5.99255 0.504395 5.89589 0.504395 5.76408C0.504395 5.64105 0.616873 5.54439 0.748097 5.54439H2.27592C2.40715 5.54439 2.51963 5.64105 2.51963 5.76408C2.51963 5.89589 2.40715 5.99255 2.27592 5.99255Z" fill="black"/>
                                    <path fill-rule="evenodd" clip-rule="evenodd" d="M2.27592 7.71487H0.748097C0.616873 7.71487 0.504395 7.60942 0.504395 7.4864C0.504395 7.35459 0.616873 7.25793 0.748097 7.25793H2.27592C2.40715 7.25793 2.51963 7.35459 2.51963 7.4864C2.51963 7.60942 2.40715 7.71487 2.27592 7.71487Z" fill="black"/>
                                    <path fill-rule="evenodd" clip-rule="evenodd" d="M2.27592 9.4284H0.748097C0.616873 9.4284 0.504395 9.32295 0.504395 9.19993C0.504395 9.07691 0.616873 8.97146 0.748097 8.97146H2.27592C2.40715 8.97146 2.51963 9.07691 2.51963 9.19993C2.51963 9.32295 2.40715 9.4284 2.27592 9.4284Z" fill="black"/>
                                    <path fill-rule="evenodd" clip-rule="evenodd" d="M2.27592 11.1419H0.748097C0.616873 11.1419 0.504395 11.0453 0.504395 10.9135C0.504395 10.7904 0.616873 10.6938 0.748097 10.6938H2.27592C2.40715 10.6938 2.51963 10.7904 2.51963 10.9135C2.51963 11.0453 2.40715 11.1419 2.27592 11.1419Z" fill="black"/>
                                    <path fill-rule="evenodd" clip-rule="evenodd" d="M2.27592 12.8643H0.748097C0.616873 12.8643 0.504395 12.7588 0.504395 12.6358C0.504395 12.504 0.616873 12.4073 0.748097 12.4073H2.27592C2.40715 12.4073 2.51963 12.504 2.51963 12.6358C2.51963 12.7588 2.40715 12.8643 2.27592 12.8643Z" fill="black"/>
                                    <path fill-rule="evenodd" clip-rule="evenodd" d="M11.2178 15.1753C11.0772 15.1753 10.9741 15.0699 10.9741 14.9469V13.5145C10.9741 13.3827 11.0772 13.286 11.2178 13.286C11.349 13.286 11.4615 13.3827 11.4615 13.5145V14.9469C11.4615 15.0699 11.349 15.1753 11.2178 15.1753Z" fill="black"/>
                                    <path fill-rule="evenodd" clip-rule="evenodd" d="M9.38081 15.1753C9.24959 15.1753 9.14648 15.0699 9.14648 14.9469V13.5145C9.14648 13.3827 9.24959 13.286 9.38081 13.286C9.52141 13.286 9.62452 13.3827 9.62452 13.5145V14.9469C9.62452 15.0699 9.52141 15.1753 9.38081 15.1753Z" fill="black"/>
                                    <path fill-rule="evenodd" clip-rule="evenodd" d="M7.55278 15.1753C7.42156 15.1753 7.30908 15.0699 7.30908 14.9469V13.5145C7.30908 13.3827 7.42156 13.286 7.55278 13.286C7.68401 13.286 7.79649 13.3827 7.79649 13.5145V14.9469C7.79649 15.0699 7.68401 15.1753 7.55278 15.1753Z" fill="black"/>
                                    <path fill-rule="evenodd" clip-rule="evenodd" d="M5.72515 15.1753C5.58455 15.1753 5.48145 15.0699 5.48145 14.9469V13.5145C5.48145 13.3827 5.58455 13.286 5.72515 13.286C5.85637 13.286 5.96885 13.3827 5.96885 13.5145V14.9469C5.96885 15.0699 5.85637 15.1753 5.72515 15.1753Z" fill="black"/>
                                    <path fill-rule="evenodd" clip-rule="evenodd" d="M3.88814 15.1753C3.75691 15.1753 3.65381 15.0699 3.65381 14.9469V13.5145C3.65381 13.3827 3.75691 13.286 3.88814 13.286C4.02874 13.286 4.13184 13.3827 4.13184 13.5145V14.9469C4.13184 15.0699 4.02874 15.1753 3.88814 15.1753Z" fill="black"/>
                                    <path fill-rule="evenodd" clip-rule="evenodd" d="M14.4048 6.61645H9.52142C9.04339 6.61645 8.61222 6.37919 8.3779 6.00133C8.14357 5.6059 8.14357 5.14896 8.3779 4.76232L10.8243 0.799225C10.9368 0.605903 11.1055 0.447731 11.3023 0.342283C11.4992 0.236835 11.7241 0.175323 11.9584 0.175323C12.4365 0.175323 12.877 0.412582 13.1113 0.799225L15.5484 4.76232C15.7921 5.14896 15.7921 5.6059 15.5484 6.00133C15.314 6.38798 14.8829 6.61645 14.4048 6.61645ZM11.9397 5.64105C12.2396 5.64105 12.4833 5.41258 12.4833 5.13139C12.4833 4.85019 12.2396 4.62172 11.9397 4.62172C11.6398 4.62172 11.3961 4.85019 11.3961 5.13139C11.3961 5.41258 11.6398 5.64105 11.9397 5.64105ZM11.9397 4.8414C12.1084 4.8414 12.249 4.97322 12.249 5.13139C12.249 5.28956 12.1084 5.42137 11.9397 5.42137C11.771 5.42137 11.6304 5.28956 11.6304 5.13139C11.6304 4.97322 11.771 4.8414 11.9397 4.8414ZM12.1928 4.34931C12.2584 4.34931 12.3053 4.30538 12.3146 4.25265L12.474 1.98552C12.4833 1.85371 12.4365 1.73068 12.3427 1.63402C12.2396 1.53736 12.0897 1.47585 11.9397 1.47585C11.7897 1.47585 11.6398 1.53736 11.5367 1.64281C11.4429 1.73068 11.3961 1.85371 11.4054 1.98552L11.5741 4.25265C11.5741 4.30538 11.6304 4.34931 11.6866 4.34931H12.1928ZM11.7991 4.12963L11.6398 1.96794C11.6304 1.90643 11.6585 1.83613 11.7054 1.7922C11.8272 1.66917 12.0522 1.66917 12.1647 1.7922C12.2209 1.83613 12.249 1.90643 12.2396 1.96794L12.0897 4.12963H11.7991Z" fill="black"/>
                                  </g>
                                  <defs>
                                    <clipPath id="clip0_35_1106">
                                      <rect width="16" height="15" fill="white" transform="translate(0.120117 0.175323)"/>
                                    </clipPath>
                                  </defs>
</svg>