<svg width="53" height="54" viewBox="0 0 54 55" fill="none" xmlns="http://www.w3.org/2000/svg">
                                <path d="M20.8987 14.8611C20.8987 11.8742 25.5031 5.03987 26.0331 4.27205C26.1129 4.16579 26.2157 4.0797 26.3335 4.02044C26.4512 3.96118 26.5808 3.93036 26.7122 3.93036C26.8435 3.93036 26.9731 3.96118 27.0908 4.02044C27.2086 4.0797 27.3114 4.16579 27.3912 4.27205C27.9212 5.03987 32.5256 11.8742 32.5256 14.8611C32.5256 16.432 31.9131 17.9386 30.8229 19.0494C29.7326 20.1602 28.254 20.7842 26.7122 20.7842C25.1703 20.7842 23.6917 20.1602 22.6014 19.0494C21.5112 17.9386 20.8987 16.432 20.8987 14.8611ZM13.4622 17.8311C14.4896 17.8298 15.4747 17.4133 16.2012 16.6731C16.9277 15.9328 17.3365 14.9292 17.3378 13.8824C17.3378 12.0008 14.6795 8.00144 14.1412 7.22519C14.0614 7.11893 13.9586 7.03284 13.8408 6.97358C13.7231 6.91432 13.5935 6.8835 13.4622 6.8835C13.3308 6.8835 13.2012 6.91432 13.0835 6.97358C12.9657 7.03284 12.8629 7.11893 12.7831 7.22519C12.2448 8.00144 9.58653 12.0008 9.58653 13.8824C9.58785 14.9292 9.99659 15.9328 10.7231 16.6731C11.4497 17.4133 12.4347 17.8298 13.4622 17.8311ZM39.9622 17.8311C40.9896 17.8298 41.9747 17.4133 42.7012 16.6731C43.4277 15.9328 43.8365 14.9292 43.8378 13.8824C43.8378 12.0008 41.1795 8.00144 40.6412 7.22519C40.5614 7.11893 40.4586 7.03284 40.3408 6.97358C40.2231 6.91432 40.0935 6.8835 39.9622 6.8835C39.8308 6.8835 39.7012 6.91432 39.5835 6.97358C39.4657 7.03284 39.3629 7.11893 39.2831 7.22519C38.7448 8.00144 36.0865 12.0008 36.0865 13.8824C36.0878 14.9292 36.4966 15.9328 37.2231 16.6731C37.9497 17.4133 38.9347 17.8298 39.9622 17.8311ZM49.8997 26.6905V48.628C49.8977 49.2987 49.6354 49.9414 49.1699 50.4157C48.7044 50.89 48.0736 51.1573 47.4153 51.1593H6.00903C5.35073 51.1573 4.71994 50.89 4.25445 50.4157C3.78895 49.9414 3.52659 49.2987 3.52466 48.628V26.6905C3.52658 26.0198 3.78894 25.3771 4.25444 24.9028C4.71993 24.4285 5.35073 24.1612 6.00903 24.1593H47.4153C48.0736 24.1612 48.7044 24.4285 49.1699 24.9028C49.6354 25.3771 49.8977 26.0198 49.8997 26.6905ZM13.4622 46.9405C13.4615 46.7169 13.374 46.5027 13.2189 46.3446C13.0637 46.1865 12.8535 46.0974 12.634 46.0968H8.49341V41.878C8.49341 41.6542 8.40616 41.4396 8.25086 41.2814C8.09555 41.1232 7.88492 41.0343 7.66528 41.0343C7.44565 41.0343 7.23501 41.1232 7.07971 41.2814C6.92441 41.4396 6.83716 41.6542 6.83716 41.878V46.9405C6.83781 47.1641 6.92527 47.3783 7.08043 47.5364C7.2356 47.6945 7.44585 47.7836 7.66528 47.7843H12.634C12.8535 47.7836 13.0637 47.6945 13.2189 47.5364C13.374 47.3783 13.4615 47.1641 13.4622 46.9405ZM13.4622 28.378C13.4615 28.1544 13.374 27.9402 13.2189 27.7821C13.0637 27.624 12.8535 27.5349 12.634 27.5343H7.66528C7.44585 27.5349 7.2356 27.624 7.08043 27.7821C6.92527 27.9402 6.83781 28.1544 6.83716 28.378V33.4405C6.83716 33.6643 6.92441 33.8789 7.07971 34.0371C7.23501 34.1954 7.44565 34.2843 7.66528 34.2843C7.88492 34.2843 8.09555 34.1954 8.25086 34.0371C8.40616 33.8789 8.49341 33.6643 8.49341 33.4405V29.2218H12.634C12.8535 29.2211 13.0637 29.132 13.2189 28.9739C13.374 28.8158 13.4615 28.6016 13.4622 28.378ZM37.0637 37.6593C37.0637 35.5733 36.4566 33.5342 35.3192 31.7997C34.1817 30.0653 32.565 28.7135 30.6735 27.9152C28.782 27.1169 26.7007 26.9081 24.6927 27.315C22.6847 27.722 20.8402 28.7265 19.3925 30.2015C17.9448 31.6765 16.9589 33.5558 16.5595 35.6017C16.1601 37.6476 16.3651 39.7682 17.1486 41.6954C17.932 43.6226 19.2588 45.2698 20.9611 46.4287C22.6634 47.5876 24.6648 48.2061 26.7122 48.2061C29.4564 48.2023 32.0871 47.0898 34.0276 45.1127C35.9681 43.1357 37.0599 40.4553 37.0637 37.6593ZM46.5872 41.878C46.5872 41.6542 46.4999 41.4396 46.3446 41.2814C46.1893 41.1232 45.9787 41.0343 45.759 41.0343C45.5394 41.0343 45.3288 41.1232 45.1735 41.2814C45.0182 41.4396 44.9309 41.6542 44.9309 41.878V46.0968H40.7903C40.5707 46.0968 40.36 46.1857 40.2047 46.3439C40.0494 46.5021 39.9622 46.7167 39.9622 46.9405C39.9622 47.1643 40.0494 47.3789 40.2047 47.5371C40.36 47.6954 40.5707 47.7843 40.7903 47.7843H45.759C45.9785 47.7836 46.1887 47.6945 46.3439 47.5364C46.499 47.3783 46.5865 47.1641 46.5872 46.9405V41.878ZM46.5872 28.378C46.5865 28.1544 46.499 27.9402 46.3439 27.7821C46.1887 27.624 45.9785 27.5349 45.759 27.5343H40.7903C40.5707 27.5343 40.36 27.6232 40.2047 27.7814C40.0494 27.9396 39.9622 28.1542 39.9622 28.378C39.9622 28.6018 40.0494 28.8164 40.2047 28.9746C40.36 29.1329 40.5707 29.2218 40.7903 29.2218H44.9309V33.4405C44.9309 33.6643 45.0182 33.8789 45.1735 34.0371C45.3288 34.1954 45.5394 34.2843 45.759 34.2843C45.9787 34.2843 46.1893 34.1954 46.3446 34.0371C46.4999 33.8789 46.5872 33.6643 46.5872 33.4405V28.378ZM35.4075 37.6593C35.4075 39.4115 34.8975 41.1243 33.942 42.5813C32.9866 44.0382 31.6286 45.1737 30.0397 45.8443C28.4508 46.5148 26.7025 46.6902 25.0158 46.3484C23.3291 46.0066 21.7797 45.1628 20.5636 43.9238C19.3476 42.6848 18.5194 41.1062 18.1839 39.3876C17.8484 37.6691 18.0206 35.8878 18.6787 34.2689C19.3369 32.6501 20.4514 31.2664 21.8813 30.293C23.3112 29.3195 24.9924 28.7999 26.7122 28.7999C29.0175 28.8025 31.2277 29.7367 32.8579 31.3976C34.488 33.0585 35.4049 35.3104 35.4075 37.6593ZM23.9297 36.4358V33.9805C23.9289 33.8788 23.9677 33.7809 24.0375 33.7082C24.1073 33.6355 24.2025 33.5939 24.3023 33.5924H29.122C29.2218 33.5939 29.317 33.6355 29.3868 33.7082C29.4566 33.7809 29.4954 33.8788 29.4947 33.9805C29.4947 34.2043 29.5819 34.4189 29.7372 34.5771C29.8925 34.7354 30.1032 34.8243 30.3228 34.8243C30.5424 34.8243 30.7531 34.7354 30.9084 34.5771C31.0637 34.4189 31.1509 34.2043 31.1509 33.9805C31.1518 33.4312 30.9385 32.904 30.5581 32.5148C30.1777 32.1256 29.6611 31.9062 29.122 31.9049H27.5403V30.9093C27.5403 30.6855 27.453 30.4709 27.2977 30.3126C27.1424 30.1544 26.9318 30.0655 26.7122 30.0655C26.4925 30.0655 26.2819 30.1544 26.1266 30.3126C25.9713 30.4709 25.884 30.6855 25.884 30.9093V31.9049H24.3023C23.7632 31.9062 23.2467 32.1256 22.8662 32.5148C22.4858 32.904 22.2725 33.4312 22.2734 33.9805V36.4358C22.2743 36.9838 22.4883 37.5091 22.8686 37.8966C23.2489 38.284 23.7645 38.5021 24.3023 38.503H29.122C29.171 38.5028 29.2195 38.5125 29.2649 38.5315C29.3102 38.5505 29.3513 38.5785 29.386 38.6138C29.4206 38.6491 29.448 38.691 29.4667 38.7372C29.4854 38.7833 29.4949 38.8328 29.4947 38.8827V41.338C29.4954 41.4397 29.4566 41.5376 29.3868 41.6103C29.317 41.683 29.2218 41.7246 29.122 41.7261H24.3023C24.2025 41.7246 24.1073 41.683 24.0375 41.6103C23.9677 41.5376 23.9289 41.4397 23.9297 41.338C23.9297 41.1142 23.8424 40.8996 23.6871 40.7414C23.5318 40.5832 23.3212 40.4943 23.1015 40.4943C22.8819 40.4943 22.6713 40.5832 22.516 40.7414C22.3607 40.8996 22.2734 41.1142 22.2734 41.338C22.2726 41.8873 22.4858 42.4145 22.8662 42.8037C23.2467 43.1929 23.7632 43.4123 24.3023 43.4136H25.884V44.4093C25.884 44.633 25.9713 44.8476 26.1266 45.0059C26.2819 45.1641 26.4925 45.253 26.7122 45.253C26.9318 45.253 27.1424 45.1641 27.2977 45.0059C27.453 44.8476 27.5403 44.633 27.5403 44.4093V43.4136H29.122C29.6611 43.4123 30.1777 43.1929 30.5581 42.8037C30.9385 42.4145 31.1518 41.8873 31.1509 41.338V38.8827C31.15 38.3347 30.936 37.8094 30.5557 37.422C30.1754 37.0345 29.6598 36.8164 29.122 36.8155H24.3023C24.2533 36.8157 24.2048 36.806 24.1595 36.787C24.1142 36.768 24.073 36.7401 24.0384 36.7048C24.0037 36.6695 23.9763 36.6275 23.9576 36.5814C23.939 36.5352 23.9295 36.4857 23.9297 36.4358Z" fill="url(#paint0_linear_35_783)"/>
                                <defs>
                                  <linearGradient id="paint0_linear_35_783" x1="3.52466" y1="27.5448" x2="49.8997" y2="27.5448" gradientUnits="userSpaceOnUse">
                                    <stop stop-color="#38E65D"/>
                                    <stop offset="1" stop-color="#397546"/>
                                  </linearGradient>
                                </defs>
</svg>