<svg width="81" height="83" viewBox="0 0 81 83" fill="none" xmlns="http://www.w3.org/2000/svg">
<g clip-path="url(#clip0_887_432)">
<path d="M40.5 82.1079C62.8675 82.1079 81 63.7516 81 41.1079C81 18.4642 62.8675 0.10791 40.5 0.10791C18.1325 0.10791 0 18.4642 0 41.1079C0 63.7516 18.1325 82.1079 40.5 82.1079Z" fill="#317941"/>
<path d="M79.5129 52.1267L53.7258 25.877L51.0205 29.2884V36.1751L45.5625 30.5536L42.8572 33.9649L23.9361 15.4829H20.8986V57.4118H15.1875V60.4868L36.5924 81.9157C37.8738 82.0438 39.1869 82.1079 40.5 82.1079C59.0889 82.1079 74.7668 69.4235 79.5129 52.1267Z" fill="#21512C"/>
<path d="M42.8569 33.9648V54.7691H48.2675V33.9648L45.5622 30.5535L42.8569 33.9648Z" fill="#D9F9E0"/>
<path d="M56.4467 29.3043L53.7414 25.877L51.0361 29.3043V54.7691H56.4467V29.3043Z" fill="#D9F9E0"/>
<path d="M34.6777 54.7691H40.0883V38.8176L37.383 35.4062L34.6777 38.8176V54.7691Z" fill="#D9F9E0"/>
<path d="M26.5146 44.2469V54.7692H31.9252V44.2469L29.2199 40.8196L26.5146 44.2469Z" fill="#D9F9E0"/>
<path d="M20.8984 15.4829H23.9359V66.7329H20.8984V15.4829Z" fill="#D9F9E0"/>
<path d="M15.1875 57.4119H65.8125V60.4869H15.1875V57.4119Z" fill="#D9F9E0"/>
</g>
<defs>
<clipPath id="clip0_887_432">
<rect width="81" height="82" fill="white" transform="translate(0 0.10791)"/>
</clipPath>
</defs>
</svg>
