<svg viewBox="0 0 32 33" fill="none" xmlns="http://www.w3.org/2000/svg">
                      <path d="M30.1914 5.10345H1.80859C0.811421 5.10345 0 5.91488 0 6.91205V9.534C0 10.5313 0.811421 11.3427 1.80859 11.3427H30.1914C31.1886 11.3427 32 10.5313 32 9.534V6.91205C32 5.91488 31.1886 5.10345 30.1914 5.10345Z" fill="#397546"/>
                      <path d="M30.1914 13.7591H1.80859C0.811421 13.7591 0 14.5705 0 15.5677V18.1897C0 19.1869 0.811421 19.9983 1.80859 19.9983H30.1914C31.1886 19.9983 32 19.1869 32 18.1897V15.5677C32 14.5705 31.1886 13.7591 30.1914 13.7591Z" fill="#397546"/>
                      <path d="M30.1914 22.4147H1.80859C0.811421 22.4147 0 23.226 0 24.2234V26.8454C0 27.8425 0.811421 28.6539 1.80859 28.6539H30.1914C31.1886 28.6539 32 27.8425 32 26.8454V24.2234C32 23.226 31.1886 22.4147 30.1914 22.4147Z" fill="#397546"/>
</svg>