<svg width="15" height="16" viewBox="0 0 15 16" fill="none" xmlns="http://www.w3.org/2000/svg">
<g clip-path="url(#clip0_7_1078)">
<path d="M14.7877 9.31595C14.6171 9.21066 14.3968 9.23 14.2491 9.36504C13.1731 10.341 11.7813 10.8788 10.3307 10.8788C7.11114 10.8788 4.4917 8.25931 4.4917 5.03974C4.4917 3.58909 5.02946 2.19737 6.00541 1.12139C6.13999 0.973078 6.16025 0.753351 6.05451 0.582719C5.94876 0.412545 5.74174 0.333581 5.55051 0.387597C2.28218 1.31308 0 4.33433 0 7.7346C0 11.9451 3.42534 15.3703 7.63574 15.3703C11.036 15.3703 14.0574 13.0882 14.9829 9.81995C15.0377 9.62688 14.9579 9.42158 14.7877 9.31595Z" fill="#565555" fill-opacity="0.63"/>
<path d="M7.43779 6.29814L8.50186 6.82972L9.03344 7.8939C9.10932 8.04611 9.26507 8.14213 9.43524 8.14213C9.60553 8.14213 9.76072 8.04611 9.83705 7.8939L10.3692 6.82972L11.4328 6.29814C11.585 6.22181 11.681 6.06651 11.681 5.89633C11.681 5.72616 11.585 5.57086 11.4328 5.49453L10.3692 4.96284L9.83705 3.89877C9.68438 3.59435 9.18531 3.59435 9.03344 3.89877L8.50186 4.96284L7.43779 5.49453C7.28558 5.57041 7.18945 5.72616 7.18945 5.89633C7.18945 6.06651 7.28558 6.22226 7.43779 6.29814Z" fill="#565555" fill-opacity="0.63"/>
<path d="M12.1273 2.79383H12.5765V3.24301C12.5765 3.49124 12.7774 3.6922 13.0257 3.6922C13.2739 3.6922 13.4748 3.49124 13.4748 3.24301V2.79383H13.924C14.1722 2.79383 14.3732 2.59299 14.3732 2.34465C14.3732 2.09643 14.1722 1.89559 13.924 1.89559H13.4748V1.4464C13.4748 1.19807 13.2739 0.997223 13.0257 0.997223C12.7774 0.997223 12.5765 1.19807 12.5765 1.4464V1.89559H12.1273C11.8791 1.89559 11.6782 2.09643 11.6782 2.34465C11.6782 2.59299 11.8791 2.79383 12.1273 2.79383Z" fill="#565555" fill-opacity="0.63"/>
</g>
<defs>
<clipPath id="clip0_7_1078">
<rect width="15" height="15" fill="white" transform="translate(0 0.341492)"/>
</clipPath>
</defs>
</svg>
