<svg width="77" height="82" viewBox="0 0 77 82" fill="none" xmlns="http://www.w3.org/2000/svg">
<path d="M52.7383 2.48096V76.3618H31.3809L26.6348 81.1079H2.9043C1.57523 81.1079 0.53125 80.0639 0.53125 78.7349V2.48096C0.53125 1.15189 1.57523 0.10791 2.9043 0.10791H50.3652C51.6943 0.10791 52.7383 1.15189 52.7383 2.48096Z" fill="#D9F9E0"/>
<path d="M52.7383 2.48096V76.3618H31.3809L26.6348 81.1079V0.10791H50.3652C51.6943 0.10791 52.7383 1.15189 52.7383 2.48096Z" fill="#D9F9E0"/>
<path d="M43.2461 16.8774C43.2461 18.2065 42.2021 19.2505 40.873 19.2505H12.3965C11.0674 19.2505 10.0234 18.2065 10.0234 16.8774C10.0234 15.5484 11.0674 14.5044 12.3965 14.5044H40.873C42.2021 14.5044 43.2461 15.5484 43.2461 16.8774Z" fill="#A2CFAC"/>
<path d="M33.7539 26.3696C33.7539 27.6987 32.7099 28.7427 31.3809 28.7427H12.3965C11.0674 28.7427 10.0234 27.6987 10.0234 26.3696C10.0234 25.0406 11.0674 23.9966 12.3965 23.9966H31.3809C32.7099 23.9966 33.7539 25.0406 33.7539 26.3696Z" fill="#A2CFAC"/>
<path d="M29.0078 35.8618C29.0078 37.1909 27.9638 38.2349 26.6348 38.2349H12.3965C11.0674 38.2349 10.0234 37.1909 10.0234 35.8618C10.0234 34.5328 11.0674 33.4888 12.3965 33.4888H26.6348C27.9638 33.4888 29.0078 34.5328 29.0078 35.8618Z" fill="#A2CFAC"/>
<path d="M50.3652 33.4888C43.8231 33.4888 38.5 38.8118 38.5 45.354C38.5 46.6657 39.5614 47.7271 40.873 47.7271C42.1847 47.7271 43.2461 46.6657 43.2461 45.354C43.2461 41.4284 46.4396 38.2349 50.3652 38.2349C54.2909 38.2349 57.4844 41.4284 57.4844 45.354C57.4844 46.6657 58.5458 47.7271 59.8574 47.7271C61.1691 47.7271 62.2305 46.6657 62.2305 45.354C62.2305 38.8118 56.9074 33.4888 50.3652 33.4888Z" fill="#397546"/>
<path d="M57.4844 45.354C57.4844 46.6657 58.5458 47.7271 59.8574 47.7271C61.1691 47.7271 62.2305 46.6657 62.2305 45.354C62.2305 38.8118 56.9074 33.4888 50.3652 33.4888V38.2349C54.2909 38.2349 57.4844 41.4284 57.4844 45.354Z" fill="#29376D"/>
<path d="M71.9206 59.5923H50.3652H29.0078L24.2617 64.3384V78.7349C24.2617 80.0465 25.3231 81.1079 26.6348 81.1079H50.3652H74.0957C75.4074 81.1079 76.4688 80.0465 76.4688 78.7349V64.3384L71.9206 59.5923Z" fill="#1B5628"/>
<path d="M76.4688 78.7349V64.3384L71.9206 59.5923H50.3652V81.1079H74.0957C75.4074 81.1079 76.4688 80.0465 76.4688 78.7349Z" fill="#397546"/>
<path d="M74.0957 42.981H50.3652H26.6348C25.3231 42.981 24.2617 44.0423 24.2617 45.354V64.3384H50.3652H76.4688V45.354C76.4688 44.0423 75.4074 42.981 74.0957 42.981Z" fill="#397546"/>
<path d="M76.4688 45.354C76.4688 44.0423 75.4074 42.981 74.0957 42.981H50.3652V64.3384H76.4688V45.354Z" fill="#266133"/>
<path d="M55.1113 57.2192H50.3652H45.6191C44.3075 57.2192 43.2461 58.2806 43.2461 59.5923V64.3384C43.2461 68.264 46.4396 71.4575 50.3652 71.4575C54.2909 71.4575 57.4844 68.264 57.4844 64.3384V59.5923C57.4844 58.2806 56.423 57.2192 55.1113 57.2192Z" fill="#D9F9E0"/>
<path d="M57.4844 64.3384V59.5923C57.4844 58.2806 56.423 57.2192 55.1113 57.2192H50.3652V71.4575C54.2909 71.4575 57.4844 68.264 57.4844 64.3384Z" fill="#D9F9E0"/>
<path d="M29.0078 35.8618C29.0078 37.1909 27.9638 38.2349 26.6348 38.2349V33.4888C27.9638 33.4888 29.0078 34.5328 29.0078 35.8618Z" fill="#A2CFAC"/>
<path d="M33.7539 26.3696C33.7539 27.6987 32.7099 28.7427 31.3809 28.7427H26.6348V23.9966H31.3809C32.7099 23.9966 33.7539 25.0406 33.7539 26.3696Z" fill="#A2CFAC"/>
<path d="M43.2461 16.8774C43.2461 18.2065 42.2021 19.2505 40.873 19.2505H26.6348V14.5044H40.873C42.2021 14.5044 43.2461 15.5484 43.2461 16.8774Z" fill="#A2CFAC"/>
</svg>
