<svg width="13" height="12" viewBox="0 0 13 12" fill="none" xmlns="http://www.w3.org/2000/svg">
<path d="M5.90189 1.12415C6.17457 0.851519 6.61658 0.851519 6.88926 1.12415L8.88845 3.12337C9.16106 3.39601 9.16106 3.83804 8.88845 4.11068C8.61584 4.3833 8.17376 4.3833 7.90115 4.11068L7.0937 3.30326V8.2822C7.0937 8.66779 6.78117 8.98032 6.39558 8.98032C6.00999 8.98032 5.69746 8.66779 5.69746 8.2822V3.30327L4.89003 4.11068C4.61739 4.3833 4.17535 4.3833 3.90271 4.11068C3.63008 3.83804 3.63008 3.39601 3.90271 3.12337L5.90189 1.12415Z" fill="white"/>
<path d="M1.76249 8.28213C1.76249 7.89661 1.44992 7.58401 1.06435 7.58401C0.678778 7.58401 0.366211 7.89661 0.366211 8.28213V8.94857C0.366211 10.467 1.54511 11.6459 3.06356 11.6459H9.72758C11.2461 11.6459 12.425 10.467 12.425 8.94857V8.28213C12.425 7.89661 12.1124 7.58401 11.7268 7.58401C11.3413 7.58401 11.0286 7.89661 11.0286 8.28213V8.94857C11.0286 9.69589 10.4749 10.2496 9.72758 10.2496H3.06356C2.31624 10.2496 1.76249 9.69589 1.76249 8.94857V8.28213Z" fill="white"/>
</svg>
