<svg width="15" height="16" viewBox="0 0 15 16" fill="none" xmlns="http://www.w3.org/2000/svg">
<g clip-path="url(#clip0_7_1279)">
<path fill-rule="evenodd" clip-rule="evenodd" d="M14.375 2.94885H0.625V11.6989H14.375V2.94885ZM0.625 2.32385C0.28 2.32385 0 2.60385 0 2.94885V11.6989C0 12.0439 0.28 12.3239 0.625 12.3239H14.375C14.72 12.3239 15 12.0439 15 11.6989V2.94885C15 2.60385 14.72 2.32385 14.375 2.32385H0.625Z" fill="black"/>
<path d="M7.1875 12.3239V13.5739H5.3125C5.14 13.5739 5 13.7139 5 13.8864C5 14.0589 5.14 14.1989 5.3125 14.1989H9.6875C9.86 14.1989 10 14.0589 10 13.8864C10 13.7139 9.86 13.5739 9.6875 13.5739H7.8125V12.3239H7.1875Z" fill="black"/>
<path fill-rule="evenodd" clip-rule="evenodd" d="M11.875 3.57385H13.75V5.44885H13.125V4.19885H11.875V3.57385Z" fill="black"/>
<path fill-rule="evenodd" clip-rule="evenodd" d="M3.125 11.0739H1.25V9.19885H1.875V10.4489H3.125V11.0739Z" fill="black"/>
</g>
<defs>
<clipPath id="clip0_7_1279">
<rect width="15" height="15" fill="white" transform="translate(0 0.761353)"/>
</clipPath>
</defs>
</svg>
