<svg width="47" height="55" viewBox="0 0 47 55" fill="none" xmlns="http://www.w3.org/2000/svg">
                                <g clip-path="url(#clip0_35_796)">
                                  <path fill-rule="evenodd" clip-rule="evenodd" d="M42.6788 10.9855L24.1504 0.940882C24.0028 0.860921 23.8387 0.819153 23.6721 0.819153C23.5054 0.819153 23.3413 0.860921 23.1937 0.940882L4.66503 10.9855C4.49809 11.076 4.35826 11.212 4.2607 11.3788C4.16314 11.5456 4.11157 11.7368 4.11158 11.9318V29.2748C4.11142 29.3236 4.11451 29.3723 4.12082 29.4207C4.82303 34.6689 7.83969 39.1744 11.5957 42.6338C14.9009 45.6778 19.1468 48.2711 23.3471 49.7034C23.5578 49.7744 23.7849 49.7744 23.9957 49.7034C28.1948 48.2707 32.4426 45.6773 35.7471 42.6337C39.5032 39.1743 42.5198 34.6685 43.2225 29.4205C43.2288 29.3721 43.2319 29.3234 43.2317 29.2747V11.9321C43.2317 11.7371 43.1801 11.5458 43.0825 11.379C42.9849 11.2122 42.8451 11.0762 42.6781 10.9858L42.6788 10.9855ZM23.6709 16.623C23.8066 16.6229 23.9409 16.6505 24.0662 16.7041C24.1916 16.7577 24.3055 16.8364 24.4014 16.9356C24.4974 17.0347 24.5735 17.1525 24.6254 17.2821C24.6773 17.4118 24.7041 17.5507 24.7041 17.691V18.8466L24.9849 18.9222C26.4078 19.3056 27.7352 20.3951 27.924 21.9797C27.9576 22.261 27.8819 22.5446 27.7134 22.7681C27.5449 22.9915 27.2975 23.1366 27.0256 23.1714C26.7537 23.2062 26.4796 23.1278 26.2636 22.9535C26.0475 22.7792 25.9073 22.5233 25.8736 22.242C25.8246 21.8322 25.484 21.4953 25.16 21.291C24.7083 21.0187 24.1936 20.8785 23.6709 20.8855C23.1036 20.8855 22.4929 21.0002 22.0355 21.3699C21.8663 21.5011 21.7268 21.6688 21.6266 21.8614C21.5264 22.054 21.4679 22.2669 21.4552 22.4852C21.4476 22.6893 21.481 22.8928 21.5533 23.0829C21.6256 23.273 21.7352 23.4456 21.8752 23.5896C22.249 23.9815 22.782 24.1508 23.3 24.2013C23.4213 24.2133 23.5432 24.2155 23.6649 24.2175C23.7623 24.2191 23.8596 24.2211 23.9568 24.2258C25.0921 24.2805 26.1965 24.669 26.9901 25.5384C27.5744 26.1675 27.9163 26.9957 27.9516 27.8674C27.9869 28.739 27.7131 29.5939 27.1817 30.2713C26.6208 30.975 25.8499 31.4661 24.99 31.6675L24.7042 31.7402V32.8845C24.7055 33.0256 24.6797 33.1655 24.6284 33.2962C24.5772 33.4269 24.5013 33.5458 24.4054 33.646C24.3094 33.7462 24.1952 33.8257 24.0694 33.88C23.9435 33.9343 23.8085 33.9623 23.6722 33.9623C23.5358 33.9623 23.4008 33.9343 23.2749 33.88C23.1491 33.8257 23.0349 33.7462 22.9389 33.646C22.843 33.5458 22.7672 33.4269 22.7159 33.2962C22.6646 33.1655 22.6388 33.0256 22.6401 32.8845V31.7301L22.3589 31.6546C20.9249 31.2701 19.5932 30.1716 19.4162 28.5686C19.4002 28.4289 19.4111 28.2874 19.4481 28.152C19.4851 28.0166 19.5476 27.8902 19.6321 27.7799C19.7165 27.6696 19.8211 27.5777 19.94 27.5093C20.0588 27.441 20.1896 27.3976 20.3247 27.3817C20.4598 27.3657 20.5966 27.3776 20.7273 27.4165C20.8579 27.4554 20.9799 27.5206 21.0861 27.6085C21.1924 27.6963 21.2808 27.8049 21.3463 27.9282C21.4119 28.0514 21.4532 28.1869 21.468 28.3267C21.5135 28.7386 21.8538 29.0776 22.1785 29.2832C22.6309 29.557 23.1469 29.6978 23.671 29.6906C24.2447 29.6906 24.8654 29.5751 25.3249 29.1953C25.4943 29.0602 25.6328 28.8882 25.7304 28.6913C25.8281 28.4945 25.8825 28.2778 25.8897 28.0567C25.893 27.8429 25.8515 27.6309 25.7681 27.4353C25.6848 27.2396 25.5616 27.0649 25.4069 26.9231C24.9911 26.5312 24.4112 26.3871 23.8631 26.3606C23.7848 26.3569 23.7066 26.3556 23.6282 26.3543C23.4527 26.3512 23.2796 26.346 23.1049 26.3288C22.0136 26.2214 20.9798 25.7866 20.252 24.9163C19.6645 24.2158 19.3572 23.31 19.3927 22.3834C19.4156 21.8938 19.5348 21.4143 19.7431 20.9741C19.9514 20.5339 20.2444 20.1423 20.6042 19.8233C21.1079 19.3771 21.7081 19.0631 22.3541 18.9078L22.6405 18.8353V17.691C22.6404 17.408 22.7489 17.1365 22.9422 16.9362C23.1355 16.736 23.3978 16.6233 23.6714 16.623H23.6709ZM34.5127 25.2879C34.5127 27.506 33.8769 29.6742 32.6857 31.5185C31.4945 33.3627 29.8014 34.8002 27.8204 35.649C25.8395 36.4978 23.6598 36.72 21.5568 36.2873C19.4538 35.8546 17.5221 34.7866 16.0059 33.2182C14.4897 31.6499 13.4572 29.6516 13.0388 27.4762C12.6204 25.3008 12.835 23.0459 13.6554 20.9966C14.4759 18.9474 15.8653 17.1958 17.6481 15.9634C19.4308 14.7311 21.5268 14.0732 23.6709 14.0731C26.5453 14.0762 29.3011 15.2587 31.3337 17.3612C33.3663 19.4637 34.5096 22.3144 34.5127 25.2879ZM10.7655 25.2879C10.7655 17.9272 16.5554 11.9367 23.6709 11.9367C30.7865 11.9367 36.5787 17.9259 36.5787 25.2879C36.5787 32.65 30.7874 38.639 23.6709 38.639C16.5544 38.639 10.7655 32.6486 10.7655 25.2879Z" fill="url(#paint0_linear_35_796)"/>
                                </g>
                                <defs>
                                  <linearGradient id="paint0_linear_35_796" x1="26.1214" y1="25.2879" x2="-6.59931" y2="58.3981" gradientUnits="userSpaceOnUse">
                                    <stop offset="0.0364676" stop-color="#3A7539"/>
                                    <stop offset="0.809437" stop-color="#6ADB83"/>
                                    <stop offset="1" stop-color="#56B264"/>
                                  </linearGradient>
                                  <clipPath id="clip0_35_796">
                                    <rect width="47" height="54" fill="white" transform="translate(0 0.819092)"/>
                                  </clipPath>
                                </defs>
</svg>