<svg width="11" height="11" viewBox="0 0 11 11" fill="none" xmlns="http://www.w3.org/2000/svg">
<path fill-rule="evenodd" clip-rule="evenodd" d="M1.08581 3.82899C0.968421 3.94637 0.902436 4.10557 0.902501 4.27157C0.902436 4.27902 0.902436 4.28641 0.902501 4.29386C0.902436 4.45986 0.968421 4.61906 1.08581 4.73644C1.13649 4.78713 1.19146 4.83328 1.25018 4.87437C1.67604 5.17241 3.76785 6.63678 3.76785 6.63678C3.83241 6.68189 3.91856 6.68079 3.98195 6.63399L5.98074 5.15659L4.50334 7.15539C4.45654 7.21878 4.45544 7.30492 4.50055 7.36948C4.50055 7.36948 5.96493 9.4613 6.26296 9.88715C6.30406 9.94588 6.3502 10.0008 6.40089 10.0515C6.51828 10.1689 6.67747 10.2349 6.84347 10.2348C6.85093 10.2349 6.85831 10.2349 6.86577 10.2348C7.03177 10.2349 7.19096 10.1689 7.30835 10.0515C7.3707 9.98917 7.41808 9.9134 7.44667 9.82998C7.71041 9.06298 9.6466 3.43023 10.1497 1.96663C10.2455 1.68824 10.174 1.37958 9.96589 1.17144C9.75776 0.963314 9.44909 0.891885 9.1707 0.987621C7.70711 1.49074 2.07435 3.42692 1.30736 3.69067C1.22394 3.71925 1.14816 3.76663 1.08581 3.82899Z" fill="white"/>
</svg>
