<svg  viewBox="0 0 15 15" fill="none" xmlns="http://www.w3.org/2000/svg">
                                  <path fill-rule="evenodd" clip-rule="evenodd" d="M10.4326 0.200958C12.7626 0.200958 14.6514 2.08976 14.6514 4.41971L14.6514 10.0447C14.6514 10.1037 14.6502 10.1623 14.6478 10.2207C14.6501 10.2398 14.6514 10.2593 14.6514 10.2791C14.6514 10.3189 14.6464 10.3575 14.6371 10.3944C14.4593 12.5607 12.6448 14.2635 10.4326 14.2635L4.80762 14.2635C2.5954 14.2635 0.78089 12.5607 0.60314 10.3944C0.593812 10.3575 0.588867 10.3189 0.588867 10.2791C0.588867 10.2593 0.590086 10.2398 0.592476 10.2207C0.590086 10.1623 0.588867 10.1037 0.588867 10.0447L0.588867 4.41971C0.588867 2.08976 2.47767 0.200958 4.80762 0.200958L10.4326 0.200958ZM13.7139 4.41971L13.7139 9.81033L13.6384 10.7478C13.3165 12.2221 12.0034 13.326 10.4326 13.326L4.80762 13.326C3.23679 13.326 1.92375 12.2221 1.60188 10.7478L1.52637 9.81033L1.52637 4.41971C1.52637 2.60752 2.99543 1.13846 4.80762 1.13846L10.4326 1.13846C12.2448 1.13846 13.7139 2.60752 13.7139 4.41971Z" fill="black"/>
                                  <rect x="4.85742" y="11.5675" width="5.71997" height="0.738159" rx="0.36908" fill="black"/>
</svg>