<svg width="76" height="76" viewBox="0 0 76 76" fill="none" xmlns="http://www.w3.org/2000/svg">
<path d="M22.2656 75.1079H53.7344C66.0313 75.1079 76 65.2704 76 53.1353V22.0806C76 9.9454 66.0313 0.10791 53.7344 0.10791H22.2656C9.96866 0.10791 0 9.9454 0 22.0806V53.1353C0 65.2704 9.96866 75.1079 22.2656 75.1079Z" fill="url(#paint0_linear_887_422)"/>
<path d="M76.0002 51.0361L47.1558 22.5713L39.0422 24.5093L27.4478 13.0674L16.0923 24.9048L22.2005 37.2461L34.3813 49.2666L28.846 52.646L51.6074 75.1079H53.7345C66.0311 75.1079 76.0002 65.27 76.0002 53.1353V51.0361Z" fill="url(#paint1_linear_887_422)"/>
<path d="M44.5285 21.4946H24.1555L27.4478 18.2456C28.8966 16.8159 28.8966 14.4971 27.4478 13.0659C25.9991 11.6362 23.6493 11.6362 22.1991 13.0659L12.5729 22.5654C11.1241 23.9951 11.1241 26.314 12.5729 27.7451L22.1991 37.2446C23.6478 38.6743 25.9976 38.6743 27.4478 37.2446C28.8966 35.8149 28.8966 33.4961 27.4478 32.0649L24.1555 28.8159H44.527C46.577 28.8159 48.238 27.1768 48.238 25.1538C48.238 23.1309 46.577 21.4917 44.527 21.4917L44.5285 21.4946Z" fill="#D9F9E0"/>
<path d="M31.4722 53.7212H51.8437L48.5514 56.9702C47.1026 58.3999 47.1026 60.7187 48.5514 62.1499C50.0001 63.5796 52.3499 63.5796 53.8001 62.1499L63.4263 52.6504C64.8751 51.2207 64.8751 48.9019 63.4263 47.4707L53.8001 37.9712C52.3514 36.5415 50.0016 36.5415 48.5514 37.9712C47.1026 39.4009 47.1026 41.7197 48.5514 43.1509L51.8437 46.3999H31.4722C29.4222 46.3999 27.7612 48.0391 27.7612 50.062C27.7612 52.085 29.4222 53.7241 31.4722 53.7241V53.7212Z" fill="#D9F9E0"/>
<defs>
<linearGradient id="paint0_linear_887_422" x1="6.52086" y1="6.54297" x2="68.6453" y2="69.4957" gradientUnits="userSpaceOnUse">
<stop stop-color="#3E9450"/>
<stop offset="1" stop-color="#266133"/>
</linearGradient>
<linearGradient id="paint1_linear_887_422" x1="20.2901" y1="20.1309" x2="68.8278" y2="69.3158" gradientUnits="userSpaceOnUse">
<stop stop-opacity="0.5"/>
<stop offset="1" stop-opacity="0"/>
</linearGradient>
</defs>
</svg>
