<svg width="28" height="24" viewBox="0 0 28 24" fill="none" xmlns="http://www.w3.org/2000/svg">
                    <path d="M13.4869 6.46097L13.5445 7.46753L12.5848 7.34427C9.0919 6.87184 6.04037 5.26959 3.44933 2.57873L2.18274 1.2436L1.85646 2.22956C1.16549 4.4275 1.60689 6.74858 3.04634 8.30962C3.81403 9.17243 3.64128 9.29569 2.31707 8.78217C1.85646 8.61783 1.45335 8.49457 1.41506 8.55614C1.28073 8.7 1.74134 10.5691 2.10591 11.3087C2.60494 12.3357 3.62208 13.3422 4.73525 13.9379L5.67568 14.4103L4.56251 14.4309C3.48775 14.4309 3.44933 14.4514 3.56457 14.8827C3.94836 16.2178 5.46452 17.6353 7.15343 18.2514L8.34342 18.6828L7.30696 19.34C5.7716 20.285 3.96756 20.819 2.16353 20.8601C1.29982 20.8807 0.589752 20.9628 0.589752 21.0245C0.589752 21.2299 2.93122 22.3802 4.29384 22.832C8.38172 24.1672 13.2374 23.5921 16.8839 21.3121C19.4748 19.6893 22.0657 16.4644 23.2748 13.3422C23.9274 11.6783 24.5799 8.63831 24.5799 7.17992C24.5799 6.23506 24.6374 6.1118 25.7122 4.9821C26.3455 4.32472 26.9405 3.60577 27.0557 3.40046C27.2476 3.0102 27.2285 3.0102 26.2496 3.35937C24.6183 3.97555 24.388 3.89337 25.1941 2.96911C25.789 2.31173 26.4991 1.12034 26.4991 0.77117C26.4991 0.709601 26.2112 0.812257 25.8849 0.997085C25.5396 1.20252 24.7719 1.5106 24.196 1.69555L23.1597 2.04473L22.2193 1.36686C21.7011 0.997086 20.9717 0.586342 20.588 0.463082C19.6091 0.175477 18.1122 0.216564 17.2294 0.545256C14.8303 1.46964 13.3141 3.85229 13.4869 6.46097Z" fill="white"/>
                  </svg>