<svg width="15" height="16" viewBox="0 0 15 16" fill="none" xmlns="http://www.w3.org/2000/svg">
<g clip-path="url(#clip0_7_1090)">
<path d="M14.6705 2.43023C11.2643 1.16473 7.83603 2.74682 4.41726 3.10623C3.16485 3.23791 1.99459 3.28267 0.746265 2.88606C0.417029 2.78144 0.0808824 3.02547 0.0808824 3.37091C0.0808824 4.63526 0 5.82238 0 7.0867L0.154412 7.7165L0 8.20297V9.07047L0.104441 9.6102L0 10.1866V11.1421L0.183824 11.8489L0 12.2582V12.776C0 12.9879 0.130794 13.179 0.3295 13.2528C4.98341 14.9819 9.67868 11.3948 14.3346 12.8742C14.6639 12.9788 15 12.7348 15 12.3894C15 12.3244 15 12.2594 15 12.1945L14.9412 11.6503L15 11.072C15 10.7535 15 10.435 15 10.1165L14.9118 9.52703L15 9.00041C15 8.71126 15 8.42212 15 8.133L14.886 7.51065L15 7.01688C15 6.76694 15 6.517 15 6.26706L14.9118 5.6062L15 5.15088C15 4.901 15 4.65114 15 4.40126L14.9191 3.76062L15 3.28497C15 3.159 15 3.03303 15 2.90706C15 2.69509 14.8692 2.50403 14.6705 2.43023Z" fill="url(#paint0_linear_7_1090)"/>
<path d="M0 11.1421V12.2584C4.87571 14.0698 10.1263 10.1078 15 12.1884V11.0721C10.1263 8.99156 4.87571 12.9536 0 11.1421Z" fill="url(#paint1_linear_7_1090)"/>
<path d="M0 9.07029V10.1866C4.87571 11.998 10.1263 8.036 15 10.1166V9.00032C10.1263 6.91976 4.87571 10.8818 0 9.07029Z" fill="url(#paint2_linear_7_1090)"/>
<path d="M0 7.08674V8.203C4.87571 10.0144 10.1263 6.05244 15 8.133V7.01674C10.1263 4.93618 4.87571 8.89821 0 7.08674Z" fill="url(#paint3_linear_7_1090)"/>
<path d="M0 5.22082V6.33708C4.87571 8.14853 10.1263 4.18653 15 6.26708V5.15082C10.1263 3.07026 4.87571 7.03226 0 5.22082Z" fill="url(#paint4_linear_7_1090)"/>
<path d="M0 3.83453V4.4712C4.87571 6.28264 10.1263 2.32064 15 4.4012V3.28494C10.2747 1.26776 5.19521 4.93064 0.446529 3.50473C0.224176 3.43791 0 3.60235 0 3.83453Z" fill="url(#paint5_linear_7_1090)"/>
<path d="M4.41726 3.10623C3.16426 3.23797 1.91256 3.20544 0.663706 2.80832C0.335206 2.70385 0 2.94899 0 3.2937V7.07888C1.50185 7.74744 3.00818 7.6375 4.51632 7.46852C4.75338 7.44197 4.93294 7.24208 4.93294 7.00352V3.57117C4.93297 3.29388 4.69303 3.07723 4.41726 3.10623Z" fill="url(#paint6_linear_7_1090)"/>
<path d="M1.53171 5.89921L1.61342 6.06477C1.62418 6.08656 1.64495 6.10165 1.66897 6.10512L1.85168 6.13168C1.91221 6.14048 1.93639 6.21486 1.89256 6.25753L1.76036 6.38639C1.74297 6.40333 1.73503 6.42777 1.73912 6.45171L1.77033 6.63368C1.78068 6.69395 1.71739 6.73992 1.66327 6.71148L1.49986 6.62556C1.47836 6.61427 1.45268 6.61427 1.43118 6.62556L1.26777 6.71148C1.21365 6.73995 1.15036 6.69398 1.16071 6.63368L1.19192 6.45171C1.19603 6.42777 1.18809 6.40336 1.17068 6.38639L1.03847 6.25753C0.994681 6.21486 1.01886 6.14048 1.07936 6.13168L1.26206 6.10512C1.28609 6.10162 1.30689 6.08653 1.31762 6.06477L1.39933 5.89921C1.42645 5.84439 1.50465 5.84439 1.53171 5.89921Z" fill="url(#paint7_linear_7_1090)"/>
<path d="M2.84855 5.89921L2.93025 6.06477C2.94102 6.08656 2.96178 6.10165 2.98581 6.10512L3.16852 6.13168C3.22905 6.14048 3.25322 6.21486 3.20943 6.25753L3.07722 6.38639C3.05984 6.40333 3.0519 6.42777 3.05599 6.45171L3.08719 6.63368C3.09755 6.69395 3.03425 6.73992 2.98013 6.71148L2.81672 6.62556C2.79522 6.61427 2.76955 6.61427 2.74805 6.62556L2.58463 6.71148C2.53049 6.73995 2.46722 6.69398 2.47758 6.63368L2.50878 6.45171C2.5129 6.42777 2.50496 6.40336 2.48758 6.38639L2.35537 6.25753C2.31158 6.21486 2.33575 6.14048 2.39625 6.13168L2.57896 6.10512C2.60299 6.10162 2.62378 6.08653 2.63452 6.06477L2.71622 5.89921C2.74328 5.84439 2.82149 5.84439 2.84855 5.89921Z" fill="url(#paint8_linear_7_1090)"/>
<path d="M4.16547 5.89921L4.24718 6.06477C4.25791 6.08656 4.27871 6.10165 4.30273 6.10512L4.48544 6.13168C4.54597 6.14048 4.57015 6.21486 4.52635 6.25753L4.39415 6.38639C4.37676 6.40333 4.36882 6.42777 4.37291 6.45171L4.40412 6.63368C4.41444 6.69395 4.35118 6.73992 4.29706 6.71148L4.13365 6.62556C4.11215 6.61427 4.08647 6.61427 4.06497 6.62556L3.90156 6.71148C3.84741 6.73995 3.78415 6.69398 3.7945 6.63368L3.82571 6.45171C3.82979 6.42777 3.82188 6.40336 3.80447 6.38639L3.67226 6.25753C3.62847 6.21486 3.65265 6.14048 3.71315 6.13168L3.89585 6.10512C3.91988 6.10162 3.94068 6.08653 3.95141 6.06477L4.03312 5.89921C4.06021 5.84439 4.13841 5.84439 4.16547 5.89921Z" fill="url(#paint9_linear_7_1090)"/>
<path d="M0.899385 4.77657L0.981091 4.94213C0.991826 4.96389 1.01262 4.97901 1.03665 4.98248L1.21936 5.00904C1.27988 5.01783 1.30403 5.09221 1.26024 5.13489L1.12803 5.26374C1.11065 5.28069 1.10271 5.30513 1.1068 5.32907L1.138 5.51104C1.14836 5.5713 1.08506 5.61727 1.03094 5.58883L0.867532 5.50292C0.846032 5.49163 0.820355 5.49163 0.798855 5.50292L0.635444 5.58883C0.581296 5.6173 0.518032 5.57133 0.528385 5.51104L0.559591 5.32907C0.563708 5.30513 0.555767 5.28071 0.538355 5.26374L0.406149 5.13489C0.362355 5.09221 0.386532 5.01783 0.447061 5.00904L0.629767 4.98248C0.653796 4.97898 0.674591 4.96389 0.685326 4.94213L0.767032 4.77657C0.79412 4.72171 0.872326 4.72171 0.899385 4.77657Z" fill="url(#paint10_linear_7_1090)"/>
<path d="M2.21625 4.77657L2.29796 4.94213C2.30869 4.96389 2.32949 4.97901 2.35352 4.98248L2.53622 5.00904C2.59675 5.01783 2.62093 5.09221 2.5771 5.13489L2.4449 5.26374C2.42752 5.28069 2.41957 5.30513 2.42369 5.32907L2.4549 5.51104C2.46525 5.5713 2.40196 5.61727 2.34784 5.58883L2.18443 5.50292C2.16293 5.49163 2.13725 5.49163 2.11575 5.50292L1.95234 5.58883C1.89822 5.6173 1.83493 5.57133 1.84528 5.51104L1.87649 5.32907C1.8806 5.30513 1.87266 5.28071 1.85525 5.26374L1.72305 5.13489C1.67925 5.09221 1.70343 5.01783 1.76393 5.00904L1.94663 4.98248C1.97066 4.97898 1.99143 4.96389 2.00219 4.94213L2.0839 4.77657C2.11099 4.72171 2.18919 4.72171 2.21625 4.77657Z" fill="url(#paint11_linear_7_1090)"/>
<path d="M3.53318 4.77657L3.61488 4.94213C3.62565 4.96389 3.64641 4.97901 3.67044 4.98248L3.85315 5.00904C3.91368 5.01783 3.93785 5.09221 3.89403 5.13489L3.76182 5.26374C3.74444 5.28069 3.7365 5.30513 3.74059 5.32907L3.77179 5.51104C3.78215 5.5713 3.71885 5.61727 3.66473 5.58883L3.50132 5.50292C3.47982 5.49163 3.45415 5.49163 3.43265 5.50292L3.26923 5.58883C3.21512 5.6173 3.15182 5.57133 3.16218 5.51104L3.19338 5.32907C3.1975 5.30513 3.18956 5.28071 3.17215 5.26374L3.03994 5.13489C2.99615 5.09221 3.02032 5.01783 3.08082 5.00904L3.26353 4.98248C3.28756 4.97898 3.30835 4.96389 3.31909 4.94213L3.40079 4.77657C3.42791 4.72171 3.50612 4.72171 3.53318 4.77657Z" fill="url(#paint12_linear_7_1090)"/>
<path d="M1.53171 3.65389L1.61342 3.81945C1.62418 3.84121 1.64495 3.85633 1.66897 3.8598L1.85168 3.88636C1.91221 3.89515 1.93639 3.96953 1.89256 4.01221L1.76036 4.14106C1.74297 4.158 1.73503 4.18245 1.73912 4.20639L1.77033 4.38833C1.78068 4.44859 1.71739 4.49456 1.66327 4.46612L1.49986 4.38021C1.47836 4.36892 1.45268 4.36892 1.43118 4.38021L1.26777 4.46612C1.21365 4.49459 1.15036 4.44862 1.16071 4.38833L1.19192 4.20639C1.19603 4.18245 1.18809 4.15803 1.17068 4.14106L1.03847 4.01221C0.994681 3.96953 1.01886 3.89515 1.07936 3.88636L1.26206 3.8598C1.28609 3.8563 1.30689 3.84121 1.31762 3.81945L1.39933 3.65389C1.42645 3.59903 1.50465 3.59903 1.53171 3.65389Z" fill="url(#paint13_linear_7_1090)"/>
<path d="M2.84855 3.65389L2.93025 3.81945C2.94102 3.84121 2.96178 3.85633 2.98581 3.8598L3.16852 3.88636C3.22905 3.89515 3.25322 3.96953 3.20943 4.01221L3.07722 4.14106C3.05984 4.158 3.0519 4.18245 3.05599 4.20639L3.08719 4.38833C3.09755 4.44859 3.03425 4.49456 2.98013 4.46612L2.81672 4.38021C2.79522 4.36892 2.76955 4.36892 2.74805 4.38021L2.58463 4.46612C2.53049 4.49459 2.46722 4.44862 2.47758 4.38833L2.50878 4.20639C2.5129 4.18245 2.50496 4.15803 2.48758 4.14106L2.35537 4.01221C2.31158 3.96953 2.33575 3.89515 2.39625 3.88636L2.57896 3.8598C2.60299 3.8563 2.62378 3.84121 2.63452 3.81945L2.71622 3.65389C2.74328 3.59903 2.82149 3.59903 2.84855 3.65389Z" fill="url(#paint14_linear_7_1090)"/>
<path d="M4.16547 3.65389L4.24718 3.81945C4.25791 3.84121 4.27871 3.85633 4.30273 3.8598L4.48544 3.88636C4.54597 3.89515 4.57015 3.96953 4.52635 4.01221L4.39415 4.14106C4.37676 4.158 4.36882 4.18245 4.37291 4.20639L4.40412 4.38833C4.41444 4.44859 4.35118 4.49456 4.29706 4.46612L4.13365 4.38021C4.11215 4.36892 4.08647 4.36892 4.06497 4.38021L3.90156 4.46612C3.84741 4.49459 3.78415 4.44862 3.7945 4.38833L3.82571 4.20639C3.82979 4.18245 3.82188 4.15803 3.80447 4.14106L3.67226 4.01221C3.62847 3.96953 3.65265 3.89515 3.71315 3.88636L3.89585 3.8598C3.91988 3.8563 3.94068 3.84121 3.95141 3.81945L4.03312 3.65389C4.06021 3.59903 4.13841 3.59903 4.16547 3.65389Z" fill="url(#paint15_linear_7_1090)"/>
<path d="M14.3346 10.6183C9.67865 9.13882 4.98341 12.7259 0.3295 10.9969C0.130794 10.9231 0 10.732 0 10.5201V12.776C0 12.9879 0.130794 13.179 0.3295 13.2528C4.98341 14.9818 9.67868 11.3947 14.3346 12.8742C14.6639 12.9788 15 12.7348 15 12.3893C15 11.6373 15 10.8854 15 10.1334C15 10.4788 14.6639 10.7229 14.3346 10.6183Z" fill="url(#paint16_linear_7_1090)"/>
</g>
<defs>
<linearGradient id="paint0_linear_7_1090" x1="8.11038" y1="8.81914" x2="11.5576" y2="14.3406" gradientUnits="userSpaceOnUse">
<stop stop-color="#FF7044"/>
<stop offset="1" stop-color="#F82814"/>
</linearGradient>
<linearGradient id="paint1_linear_7_1090" x1="7.40365" y1="11.6059" x2="10.6241" y2="13.5911" gradientUnits="userSpaceOnUse">
<stop stop-color="#F9F7FC"/>
<stop offset="1" stop-color="#F0DDFC"/>
</linearGradient>
<linearGradient id="paint2_linear_7_1090" x1="8.32912" y1="10.1046" x2="11.5495" y2="12.0897" gradientUnits="userSpaceOnUse">
<stop stop-color="#F9F7FC"/>
<stop offset="1" stop-color="#F0DDFC"/>
</linearGradient>
<linearGradient id="paint3_linear_7_1090" x1="9.21518" y1="8.66718" x2="12.4356" y2="10.6524" gradientUnits="userSpaceOnUse">
<stop stop-color="#F9F7FC"/>
<stop offset="1" stop-color="#F0DDFC"/>
</linearGradient>
<linearGradient id="paint4_linear_7_1090" x1="10.0487" y1="7.31506" x2="13.2691" y2="9.30026" gradientUnits="userSpaceOnUse">
<stop stop-color="#F9F7FC"/>
<stop offset="1" stop-color="#F0DDFC"/>
</linearGradient>
<linearGradient id="paint5_linear_7_1090" x1="10.8821" y1="5.96294" x2="14.1026" y2="7.94814" gradientUnits="userSpaceOnUse">
<stop stop-color="#F9F7FC"/>
<stop offset="1" stop-color="#F0DDFC"/>
</linearGradient>
<linearGradient id="paint6_linear_7_1090" x1="1.49856" y1="2.90679" x2="3.58668" y2="8.02414" gradientUnits="userSpaceOnUse">
<stop stop-color="#18CEFB"/>
<stop offset="0.4437" stop-color="#2990F5"/>
<stop offset="1" stop-color="#3F3CED"/>
</linearGradient>
<linearGradient id="paint7_linear_7_1090" x1="1.3565" y1="5.98265" x2="1.67353" y2="6.75956" gradientUnits="userSpaceOnUse">
<stop stop-color="#F8F6FB"/>
<stop offset="1" stop-color="#EFDCFB"/>
</linearGradient>
<linearGradient id="paint8_linear_7_1090" x1="2.67334" y1="5.98265" x2="2.99037" y2="6.75956" gradientUnits="userSpaceOnUse">
<stop stop-color="#F8F6FB"/>
<stop offset="1" stop-color="#EFDCFB"/>
</linearGradient>
<linearGradient id="paint9_linear_7_1090" x1="3.99026" y1="5.98265" x2="4.30729" y2="6.75956" gradientUnits="userSpaceOnUse">
<stop stop-color="#F8F6FB"/>
<stop offset="1" stop-color="#EFDCFB"/>
</linearGradient>
<linearGradient id="paint10_linear_7_1090" x1="0.724179" y1="4.85998" x2="1.04121" y2="5.63692" gradientUnits="userSpaceOnUse">
<stop stop-color="#F8F6FB"/>
<stop offset="1" stop-color="#EFDCFB"/>
</linearGradient>
<linearGradient id="paint11_linear_7_1090" x1="2.04105" y1="4.85998" x2="2.35807" y2="5.63692" gradientUnits="userSpaceOnUse">
<stop stop-color="#F8F6FB"/>
<stop offset="1" stop-color="#EFDCFB"/>
</linearGradient>
<linearGradient id="paint12_linear_7_1090" x1="3.35797" y1="4.85998" x2="3.675" y2="5.63692" gradientUnits="userSpaceOnUse">
<stop stop-color="#F8F6FB"/>
<stop offset="1" stop-color="#EFDCFB"/>
</linearGradient>
<linearGradient id="paint13_linear_7_1090" x1="1.3565" y1="3.73733" x2="1.67353" y2="4.51424" gradientUnits="userSpaceOnUse">
<stop stop-color="#F8F6FB"/>
<stop offset="1" stop-color="#EFDCFB"/>
</linearGradient>
<linearGradient id="paint14_linear_7_1090" x1="2.67334" y1="3.73733" x2="2.99037" y2="4.51424" gradientUnits="userSpaceOnUse">
<stop stop-color="#F8F6FB"/>
<stop offset="1" stop-color="#EFDCFB"/>
</linearGradient>
<linearGradient id="paint15_linear_7_1090" x1="3.99026" y1="3.73733" x2="4.30729" y2="4.51424" gradientUnits="userSpaceOnUse">
<stop stop-color="#F8F6FB"/>
<stop offset="1" stop-color="#EFDCFB"/>
</linearGradient>
<linearGradient id="paint16_linear_7_1090" x1="7.51094" y1="11.5425" x2="7.94965" y2="14.2287" gradientUnits="userSpaceOnUse">
<stop stop-color="#F82814" stop-opacity="0"/>
<stop offset="1" stop-color="#C0272D"/>
</linearGradient>
<clipPath id="clip0_7_1090">
<rect width="15" height="15" fill="white" transform="translate(0 0.341492)"/>
</clipPath>
</defs>
</svg>
