<svg width="15" height="16" viewBox="0 0 15 16" fill="none" xmlns="http://www.w3.org/2000/svg">
<g clip-path="url(#clip0_7_1120)">
<path d="M8.717 0.890774C8.543 0.807774 8.338 0.829774 8.188 0.950774L3.324 4.84177H1C0.449 4.84177 0 5.29077 0 5.84177V9.84177C0 10.3928 0.449 10.8418 1 10.8418H3.324L8.187 14.7328C8.278 14.8048 8.389 14.8418 8.5 14.8418C8.574 14.8418 8.648 14.8258 8.717 14.7928C8.89 14.7088 9 14.5338 9 14.3418V1.34177C9 1.14977 8.89 0.974774 8.717 0.890774ZM3 9.84177H1V5.84177H3V9.84177ZM8 13.3008L4 10.1008V5.58277L8 2.38277V13.3008Z" fill="#565555"/>
<path d="M11.5322 4.30577C11.3352 4.11077 11.0192 4.11377 10.8252 4.30977C10.6312 4.50677 10.6332 4.82277 10.8292 5.01677C11.5842 5.76377 12.0002 6.76677 12.0002 7.84177C12.0002 8.91677 11.5842 9.91977 10.8292 10.6668C10.6322 10.8608 10.6302 11.1768 10.8252 11.3738C10.9232 11.4728 11.0522 11.5218 11.1802 11.5218C11.3072 11.5218 11.4342 11.4738 11.5322 11.3768C12.4792 10.4418 13.0002 9.18677 13.0002 7.84177C13.0002 6.49677 12.4792 5.24177 11.5322 4.30577Z" fill="#565555"/>
<path d="M12.9421 2.89677C12.7461 2.70277 12.4291 2.70377 12.2351 2.89977C12.0411 3.09577 12.0421 3.41277 12.2381 3.60677C13.3741 4.73377 14.0001 6.23777 14.0001 7.84177C14.0001 9.44577 13.3741 10.9498 12.2381 12.0768C12.0421 12.2708 12.0411 12.5878 12.2351 12.7838C12.3331 12.8828 12.4611 12.9318 12.5901 12.9318C12.7171 12.9318 12.8441 12.8838 12.9421 12.7868C14.2691 11.4708 15.0001 9.71477 15.0001 7.84177C15.0001 5.96877 14.2691 4.21277 12.9421 2.89677Z" fill="#565555"/>
</g>
<defs>
<clipPath id="clip0_7_1120">
<rect width="15" height="15" fill="white" transform="translate(0 0.341492)"/>
</clipPath>
</defs>
</svg>
